#N canvas 1234 362 450 302 12;
#X obj 95 5 inlet note;
#X obj 70 240 outlet~ sound;
#X obj 45 50 unpack 0 0;
#X obj 49 83 mtof;
#X obj 225 150 line;
#X obj 130 190 *~;
#X obj 225 90 / 127;
#X msg 225 115 \$1 50;
#X obj 45 120 phasor~;
#X obj 230 10 inlet control;
#X connect 0 0 2 0;
#X connect 2 0 3 0;
#X connect 2 1 6 0;
#X connect 3 0 8 0;
#X connect 4 0 5 1;
#X connect 5 0 1 0;
#X connect 6 0 7 0;
#X connect 7 0 4 0;
#X connect 8 0 5 0;
