#N canvas 849 207 2325 1548 12;
#X obj 285 110 banger;
#X msg 285 70 1;
#X obj 290 45 loadbang;
#X obj 400 105 % 16;
#X obj 280 330 trigpat;
#X obj 280 275 indicator;
#X obj 275 400 scalegen;
#X text 615 330 persian scale;
#X msg 615 360 1 4 5 6 9 11 12;
#X obj 750 285 loadbang;
#X obj 575 730 bassemu~;
#X obj 575 790 output~;
#X text 786 435 CutOff;
#X text 840 435 Reso;
#X text 879 435 EnvMod;
#X text 929 435 Decay;
#X obj 1031 451 vsl 25 128 0 127 0 1 empty empty empty 0 -8 0 8 #fcfcfc
#000000 #000000 8500 1;
#X msg 1031 607 glide \$1;
#X text 1025 436 Glide;
#X obj 800 450 vsl 25 128 -1 1 0 1 empty empty empty 0 -8 0 8 #fcfcfc
#000000 #000000 2225 1;
#X obj 846 450 vsl 25 128 -1 2 0 1 empty empty empty 0 -8 0 8 #fcfcfc
#000000 #000000 5400 1;
#X obj 892 450 vsl 25 128 -1 2 0 1 empty empty empty 0 -8 0 8 #fcfcfc
#000000 #000000 7297 1;
#X obj 938 450 vsl 25 128 -1 1 0 1 empty empty empty 0 -8 0 8 #fcfcfc
#000000 #000000 4485 1;
#X obj 984 450 vsl 25 128 0 1 0 1 empty empty empty 0 -8 0 8 #fcfcfc
#000000 #000000 4550 1;
#X msg 800 590 cutoff \$1;
#X msg 846 610 reso \$1;
#X obj 892 646 s bass_ctl;
#X msg 892 586 envmod \$1;
#X msg 938 606 decay \$1;
#X msg 984 586 pw \$1;
#X text 982 425 Rect;
#X text 979 435 Width;
#X obj 1031 586 / 127;
#X obj 590 680 r bass_ctl;
#X obj 690 700 loadbang;
#X obj 300 815 s bass_ctl;
#X obj 1110 230 trigpat;
#X obj 1105 300 scalegen;
#X text 1445 230 persian scale;
#X msg 1445 260 1 4 5 6 9 11 12;
#X msg 1620 260 1;
#X msg 1570 260 4;
#X obj 1670 215 loadbang;
#X msg 1410 175 1 0 1 0 0 1 0 0 1 0 0 1 0 0 1 0;
#X msg 740 360 2;
#X obj 840 1120 output~;
#X obj 1005 1045 loadbang;
#X obj 830 1070 fluid~ -smmf TimGM6mb;
#X msg 1105 620 \$3 \$1 \$2;
#X obj 1105 595 pack 0 0 0;
#X obj 1280 590 nbx 5 14 0 127 0 1 empty empty instrument 0 -8 0 10
#fcfcfc #000000 #000000 1 256 0;
#X msg 1005 1095 1;
#X msg 690 750 0.7;
#X obj 285 920 trigpat;
#X obj 280 990 scalegen;
#X text 620 920 persian scale;
#X msg 620 950 1 4 5 6 9 11 12;
#X msg 795 950 1;
#X msg 745 950 4;
#X obj 280 1255 makenote 100 100, f 19;
#X obj 845 905 loadbang;
#X msg 280 1310 \$3 \$1 \$2;
#X obj 280 1285 pack 0 0 0;
#X obj 455 1280 nbx 5 14 0 127 0 1 empty empty instrument 0 -8 0 10
#fcfcfc #000000 #000000 10 256 0;
#X obj 825 1030 r \$0-soundfont;
#X obj 1105 645 s \$0-soundfont;
#X obj 280 1345 s \$0-soundfont;
#X msg 615 880 1 0 1 0 1 1 0 1 1 1 0 1 1 0 1 1;
#X obj 280 890 r \$0-step;
#X obj 180 260 r \$0-step;
#X obj 1110 200 r \$0-step;
#X obj 400 135 s \$0-step;
#X obj 1145 865 s \$0-soundfont;
#X msg 1145 840 10 42 100;
#X text 1100 790 CHH;
#X obj 1150 1035 s \$0-soundfont;
#X text 1090 930 KICK;
#X msg 1150 1010 10 36 100;
#X obj 1150 1205 s \$0-soundfont;
#X text 1085 1110 SNARE;
#X msg 1150 1180 10 38 100;
#X obj 325 710 pack 0 0;
#X obj 325 740 route 0;
#X msg 260 770 -1;
#X obj 275 665 makenote 100 2000, f 19;
#X msg 700 240 1 0 0 0 0 1 0 0 0 0 1 0 0 0 0 0;
#X msg 355 775 \$2;
#X msg 790 360 2;
#X obj 1105 565 makenote 100 1000, f 19;
#X obj 1145 750 r \$0-step;
#X obj 1145 780 trigpat;
#X obj 1150 920 r \$0-step;
#X obj 1150 950 trigpat;
#X obj 1150 1090 r \$0-step;
#X obj 1150 1120 trigpat;
#X msg 1515 775 1 0 1 0 1 0 1 0 1 0 1 0 1 0 1 0;
#X msg 1510 910 1 0 0 0 1 0 0 0 1 0 0 0 1 0 0 0;
#X msg 1515 1095 0 0 1 0 0 0 1 0 0 0 1 0 0 0 1 0;
#X obj 1805 905 loadbang;
#X msg 326 72 60, f 5;
#X obj 280 220 cnv 15 403 38 empty empty BASS 20 12 0 16 #fffe00 #404040
0;
#X obj 1100 130 cnv 15 403 38 empty empty PIANO 19 12 0 16 #fffe00
#404040 0;
#X obj 275 845 cnv 15 403 38 empty empty RANDOM\ PERCUSSION 19 12 0
16 #fffe00 #404040 0;
#X obj 1140 700 cnv 15 403 38 empty empty STEP\ PERCUSSION 19 12 0
16 #fffe00 #404040 0;
#X connect 0 4 3 0;
#X connect 1 0 0 0;
#X connect 2 0 1 0;
#X connect 2 0 99 0;
#X connect 3 0 71 0;
#X connect 4 0 6 0;
#X connect 6 0 84 0;
#X connect 8 0 6 1;
#X connect 9 0 8 0;
#X connect 9 0 44 0;
#X connect 9 0 87 0;
#X connect 9 0 85 0;
#X connect 10 0 11 0;
#X connect 10 0 11 1;
#X connect 16 0 32 0;
#X connect 17 0 26 0;
#X connect 19 0 24 0;
#X connect 20 0 25 0;
#X connect 21 0 27 0;
#X connect 22 0 28 0;
#X connect 23 0 29 0;
#X connect 24 0 26 0;
#X connect 25 0 26 0;
#X connect 27 0 26 0;
#X connect 28 0 26 0;
#X connect 29 0 26 0;
#X connect 32 0 17 0;
#X connect 33 0 10 0;
#X connect 34 0 52 0;
#X connect 36 0 37 0;
#X connect 37 0 88 0;
#X connect 39 0 37 1;
#X connect 40 0 37 3;
#X connect 41 0 37 2;
#X connect 42 0 43 0;
#X connect 42 0 40 0;
#X connect 42 0 41 0;
#X connect 42 0 39 0;
#X connect 43 0 36 1;
#X connect 44 0 6 2;
#X connect 46 0 51 0;
#X connect 47 0 45 0;
#X connect 47 1 45 1;
#X connect 48 0 65 0;
#X connect 49 0 48 0;
#X connect 50 0 49 2;
#X connect 51 0 45 2;
#X connect 52 0 11 2;
#X connect 53 0 54 0;
#X connect 54 0 59 0;
#X connect 56 0 54 1;
#X connect 57 0 54 3;
#X connect 58 0 54 2;
#X connect 59 0 62 0;
#X connect 59 1 62 1;
#X connect 60 0 67 0;
#X connect 60 0 57 0;
#X connect 60 0 58 0;
#X connect 60 0 56 0;
#X connect 61 0 66 0;
#X connect 62 0 61 0;
#X connect 63 0 62 2;
#X connect 64 0 47 0;
#X connect 67 0 53 1;
#X connect 68 0 53 0;
#X connect 69 0 5 0;
#X connect 69 0 4 0;
#X connect 70 0 36 0;
#X connect 73 0 72 0;
#X connect 77 0 75 0;
#X connect 80 0 78 0;
#X connect 81 0 82 0;
#X connect 82 0 83 0;
#X connect 82 1 86 0;
#X connect 83 0 35 0;
#X connect 84 0 81 1;
#X connect 84 1 81 0;
#X connect 85 0 4 1;
#X connect 86 0 35 0;
#X connect 87 0 6 3;
#X connect 88 0 49 0;
#X connect 88 1 49 1;
#X connect 89 0 90 0;
#X connect 90 0 73 0;
#X connect 91 0 92 0;
#X connect 92 0 77 0;
#X connect 93 0 94 0;
#X connect 94 0 80 0;
#X connect 95 0 90 1;
#X connect 96 0 92 1;
#X connect 97 0 94 1;
#X connect 98 0 95 0;
#X connect 98 0 96 0;
#X connect 98 0 97 0;
#X connect 99 0 0 1;
