#N canvas 1623 746 959 667 12;
#X obj 110 290 indicator;
#X obj 270 15 cnv 15 410 54 empty empty empty 20 12 0 14 #78e3a8 #404040
0;
#X text 280 25 indicator will allow you to build 16-step sequencers
easily, f 55;
#X text 450 280 INLETS:;
#X text 450 310 step: give it a number 0-16;
#X obj 105 150 banger;
#X obj 115 75 loadbang;
#X msg 110 105 1;
#X msg 160 105 30;
#X obj 180 215 % 16;
#X connect 5 4 9 0;
#X connect 6 0 8 0;
#X connect 6 0 7 0;
#X connect 7 0 5 0;
#X connect 8 0 5 1;
#X connect 9 0 0 0;
