#N canvas 357 25 1095 927 12;
#X obj 180 160 cnv 15 60 153 empty empty empty 20 12 0 14 #e0e0e0 #404040
0;
#X obj 200 160 cnv 15 37 110 empty empty empty 20 12 0 14 #000000 #404040
0;
#X obj 250 160 cnv 15 60 153 empty empty empty 20 12 0 14 #e0e0e0 #404040
0;
#X obj 270 160 cnv 15 37 110 empty empty empty 20 12 0 14 #000000 #404040
0;
#X obj 320 160 cnv 15 60 153 empty empty empty 20 12 0 14 #e0e0e0 #404040
0;
#X obj 390 160 cnv 15 60 153 empty empty empty 20 12 0 14 #e0e0e0 #404040
0;
#X obj 410 160 cnv 15 37 110 empty empty empty 20 12 0 14 #000000 #404040
0;
#X obj 460 160 cnv 15 60 153 empty empty empty 20 12 0 14 #e0e0e0 #404040
0;
#X obj 480 160 cnv 15 37 110 empty empty empty 20 12 0 14 #000000 #404040
0;
#X obj 530 160 cnv 15 60 153 empty empty empty 20 12 0 14 #e0e0e0 #404040
0;
#X obj 550 160 cnv 15 37 110 empty empty empty 20 12 0 14 #000000 #404040
0;
#X obj 600 160 cnv 15 60 153 empty empty empty 20 12 0 14 #e0e0e0 #404040
0;
#X obj 90 600 - 1;
#X obj 130 600 * 12;
#X obj 110 640 +;
#X obj 90 20 inlet trigger;
#X obj 180 130 tgl 15 0 empty empty empty 17 7 0 10 #fcfcfc #000000
#000000 1 1;
#X obj 210 130 tgl 15 0 empty empty empty 17 7 0 10 #000000 #ffffff
#000000 2 2;
#X obj 250 130 tgl 15 0 empty empty empty 17 7 0 10 #fcfcfc #000000
#000000 3 3;
#X obj 280 130 tgl 15 0 empty empty empty 17 7 0 10 #000000 #ffffff
#000000 0 4;
#X obj 320 130 tgl 15 0 empty empty empty 17 7 0 10 #fcfcfc #000000
#000000 0 5;
#X obj 390 130 tgl 15 0 empty empty empty 17 7 0 10 #fcfcfc #000000
#000000 0 6;
#X obj 420 130 tgl 15 0 empty empty empty 17 7 0 10 #000000 #ffffff
#000000 0 7;
#X obj 460 130 tgl 15 0 empty empty empty 17 7 0 10 #fcfcfc #000000
#000000 0 8;
#X obj 490 130 tgl 15 0 empty empty empty 17 7 0 10 #000000 #ffffff
#000000 0 9;
#X obj 530 130 tgl 15 0 empty empty empty 17 7 0 10 #fcfcfc #000000
#000000 0 10;
#X obj 560 130 tgl 15 0 empty empty empty 17 7 0 10 #000000 #ffffff
#000000 0 11;
#X obj 600 130 tgl 15 0 empty empty empty 17 7 0 10 #fcfcfc #000000
#000000 0 12;
#X obj 191 482 pack 0 0 0 0 0 0 0 0 0 0 0 0;
#X obj 170 380 t b f;
#X obj 220 380 t b f;
#X obj 270 380 t b f;
#X obj 320 380 t b f;
#X obj 370 380 t b f;
#X obj 420 380 t b f;
#X obj 200 420 t b f;
#X obj 250 420 t b f;
#X obj 300 420 t b f;
#X obj 350 420 t b f;
#X obj 400 420 t b f;
#X obj 450 420 t b f;
#X obj 190 520 list-filter;
#X obj 290 520 > 0;
#N canvas 1230 665 450 325 randlistitem 0;
#X obj 80 50 inlet;
#X obj 80 70 t b;
#X obj 200 50 inlet;
#X obj 80 90 random;
#X obj 113 70 r \$0-length;
#X obj 227 130 s \$0-length;
#X obj 80 170 list-nth;
#X obj 140 230 outlet;
#X obj 80 150 list;
#X obj 80 110 t b f;
#X obj 227 110 list length;
#X obj 200 90 t l l;
#X obj 200 70 list;
#X obj 80 200 select 0;
#X connect 0 0 1 0;
#X connect 1 0 3 0;
#X connect 2 0 12 0;
#X connect 3 0 9 0;
#X connect 4 0 3 1;
#X connect 6 0 13 0;
#X connect 8 0 6 0;
#X connect 9 0 8 0;
#X connect 9 1 6 1;
#X connect 10 0 5 0;
#X connect 11 0 8 1;
#X connect 11 1 10 0;
#X connect 12 0 11 0;
#X connect 13 1 7 0;
#X restore 90 570 pd randlistitem;
#X obj 110 720 outlet note;
#X obj 180 93 bng 15 250 50 0 empty empty trigger 17 7 0 10 #fcfcfc
#000000 #000000;
#X floatatom 550 90 2 0 10 0 start - -, f 2;
#X floatatom 610 90 2 1 5 0 range - -, f 2;
#X obj 520 20 inlet octave_start;
#X obj 670 20 inlet octave_range;
#X text 450 90 OCTAVE:;
#X obj 70 200 t b b b;
#X obj 120 680 +;
#X obj 175 617 * 12;
#X obj 284 629 random;
#X connect 12 0 14 0;
#X connect 13 0 14 1;
#X connect 14 0 52 0;
#X connect 15 0 45 0;
#X connect 16 0 29 0;
#X connect 17 0 30 0;
#X connect 18 0 31 0;
#X connect 19 0 32 0;
#X connect 20 0 33 0;
#X connect 21 0 34 0;
#X connect 22 0 35 0;
#X connect 23 0 36 0;
#X connect 24 0 37 0;
#X connect 25 0 38 0;
#X connect 26 0 39 0;
#X connect 27 0 40 0;
#X connect 28 0 41 0;
#X connect 29 0 28 0;
#X connect 29 1 28 0;
#X connect 30 0 28 0;
#X connect 30 1 28 1;
#X connect 31 0 28 0;
#X connect 31 1 28 2;
#X connect 32 0 28 0;
#X connect 32 1 28 3;
#X connect 33 0 28 0;
#X connect 33 1 28 4;
#X connect 34 0 28 0;
#X connect 34 1 28 5;
#X connect 35 0 28 0;
#X connect 35 1 28 6;
#X connect 36 0 28 0;
#X connect 36 1 28 7;
#X connect 37 0 28 0;
#X connect 37 1 28 8;
#X connect 38 0 28 0;
#X connect 38 1 28 9;
#X connect 39 0 28 0;
#X connect 39 1 28 10;
#X connect 40 0 28 0;
#X connect 40 1 28 11;
#X connect 41 0 43 1;
#X connect 41 1 42 0;
#X connect 42 0 41 1;
#X connect 43 0 12 0;
#X connect 45 0 51 0;
#X connect 46 0 13 0;
#X connect 47 0 54 1;
#X connect 48 0 46 0;
#X connect 49 0 47 0;
#X connect 51 0 43 0;
#X connect 51 1 46 0;
#X connect 51 2 54 0;
#X connect 52 0 44 0;
#X connect 53 0 52 1;
#X connect 54 0 53 0;
#X coords 0 -1 1 1 495 257 1 171 70;
