#N canvas 324 25 1095 965 12;
#X obj 200 330 cnv 15 60 153 empty empty empty 20 12 0 14 #e0e0e0 #404040
0;
#X obj 220 330 cnv 15 37 110 empty empty empty 20 12 0 14 #000000 #404040
0;
#X obj 270 330 cnv 15 60 153 empty empty empty 20 12 0 14 #e0e0e0 #404040
0;
#X obj 290 330 cnv 15 37 110 empty empty empty 20 12 0 14 #000000 #404040
0;
#X obj 340 330 cnv 15 60 153 empty empty empty 20 12 0 14 #e0e0e0 #404040
0;
#X obj 410 330 cnv 15 60 153 empty empty empty 20 12 0 14 #e0e0e0 #404040
0;
#X obj 430 330 cnv 15 37 110 empty empty empty 20 12 0 14 #000000 #404040
0;
#X obj 480 330 cnv 15 60 153 empty empty empty 20 12 0 14 #e0e0e0 #404040
0;
#X obj 500 330 cnv 15 37 110 empty empty empty 20 12 0 14 #000000 #404040
0;
#X obj 550 330 cnv 15 60 153 empty empty empty 20 12 0 14 #e0e0e0 #404040
0;
#X obj 570 330 cnv 15 37 110 empty empty empty 20 12 0 14 #000000 #404040
0;
#X obj 620 330 cnv 15 60 153 empty empty empty 20 12 0 14 #e0e0e0 #404040
0;
#X obj 190 190 inlet trigger;
#X obj 200 300 tgl 15 0 \$0-n1-o \$0-n1-i empty 17 7 0 10 #fcfcfc #000000
#000000 1 1;
#X obj 230 300 tgl 15 0 \$0-n2-o \$0-n2-i empty 17 7 0 10 #000000 #ffffff
#000000 0 2;
#X obj 270 300 tgl 15 0 \$0-n3-o \$0-n3-i empty 17 7 0 10 #fcfcfc #000000
#000000 0 3;
#X obj 300 300 tgl 15 0 \$0-n4-o \$0-n4-i empty 17 7 0 10 #000000 #ffffff
#000000 4 4;
#X obj 340 300 tgl 15 0 \$0-n5-o \$0-n5-i empty 17 7 0 10 #fcfcfc #000000
#000000 5 5;
#X obj 410 300 tgl 15 0 \$0-n6-o \$0-n6-i empty 17 7 0 10 #fcfcfc #000000
#000000 6 6;
#X obj 440 300 tgl 15 0 \$0-n7-o \$0-n7-i empty 17 7 0 10 #000000 #ffffff
#000000 0 7;
#X obj 480 300 tgl 15 0 \$0-n8-o \$0-n8-i empty 17 7 0 10 #fcfcfc #000000
#000000 0 8;
#X obj 510 300 tgl 15 0 \$0-n9-o \$0-n9-i empty 17 7 0 10 #000000 #ffffff
#000000 9 9;
#X obj 550 300 tgl 15 0 \$0-n10-o \$0-n10-i empty 17 7 0 10 #fcfcfc
#000000 #000000 0 10;
#X obj 580 300 tgl 15 0 \$0-n11-o \$0-n11-i empty 17 7 0 10 #000000
#ffffff #000000 11 11;
#X obj 620 300 tgl 15 0 \$0-n12-o \$0-n12-i empty 17 7 0 10 #fcfcfc
#000000 #000000 12 12;
#N canvas 1230 665 450 325 randlistitem 0;
#X obj 80 50 inlet;
#X obj 80 70 t b;
#X obj 200 50 inlet;
#X obj 80 90 random;
#X obj 113 70 r \$0-length;
#X obj 227 130 s \$0-length;
#X obj 80 170 list-nth;
#X obj 140 230 outlet;
#X obj 80 150 list;
#X obj 80 110 t b f;
#X obj 227 110 list length;
#X obj 200 90 t l l;
#X obj 200 70 list;
#X obj 80 200 select 0;
#X connect 0 0 1 0;
#X connect 1 0 3 0;
#X connect 2 0 12 0;
#X connect 3 0 9 0;
#X connect 4 0 3 1;
#X connect 6 0 13 0;
#X connect 8 0 6 0;
#X connect 9 0 8 0;
#X connect 9 1 6 1;
#X connect 10 0 5 0;
#X connect 11 0 8 1;
#X connect 11 1 10 0;
#X connect 12 0 11 0;
#X connect 13 1 7 0;
#X restore 300 680 pd randlistitem;
#X obj 200 263 bng 15 250 50 0 \$0-trigger empty trigger 17 7 0 10
#fcfcfc #000000 #000000;
#X floatatom 570 260 2 0 10 0 start - #0-octave_start, f 2;
#X floatatom 630 260 2 1 5 0 range - #0-octave_range, f 2;
#X obj 510 190 inlet octave_start;
#X obj 660 190 inlet octave_range;
#X text 470 260 OCTAVE:;
#X obj 320 90 inlet notes;
#X obj 460 890 outlet note;
#N canvas 654 358 482 239 reset 0;
#X obj 30 40 s \$0-n1-i;
#X obj 50 -20 t 0 0 0 0 0 0 0 0 0 0 0 0;
#X obj 110 40 s \$0-n2-i;
#X obj 190 40 s \$0-n3-i;
#X obj 30 70 s \$0-n4-i;
#X obj 110 70 s \$0-n5-i;
#X obj 190 70 s \$0-n6-i;
#X obj 30 100 s \$0-n7-i;
#X obj 110 100 s \$0-n8-i;
#X obj 190 100 s \$0-n9-i;
#X obj 30 130 s \$0-n10-i;
#X obj 110 130 s \$0-n11-i;
#X obj 194 128 s \$0-n12-i;
#X obj 50 -60 inlet trigger;
#X connect 1 0 0 0;
#X connect 1 1 2 0;
#X connect 1 2 3 0;
#X connect 1 3 4 0;
#X connect 1 4 5 0;
#X connect 1 5 6 0;
#X connect 1 6 7 0;
#X connect 1 7 8 0;
#X connect 1 8 9 0;
#X connect 1 9 10 0;
#X connect 1 10 11 0;
#X connect 1 11 12 0;
#X connect 13 0 1 0;
#X restore 450 120 pd reset;
#X obj 450 90 r \$0-reset;
#N canvas 615 25 661 537 list2toggles 0;
#X obj 110 100 list-drip;
#X obj 110 130 select 1 2 3 4 5 6 7 8 9 10 11 12;
#X obj 110 70 t l b;
#X msg 10 180 1;
#X obj 40 240 s \$0-n1-i;
#X obj 120 240 s \$0-n2-i;
#X obj 200 240 s \$0-n3-i;
#X obj 40 270 s \$0-n4-i;
#X obj 120 270 s \$0-n5-i;
#X obj 200 270 s \$0-n6-i;
#X obj 40 300 s \$0-n7-i;
#X obj 120 300 s \$0-n8-i;
#X obj 200 300 s \$0-n9-i;
#X obj 40 330 s \$0-n10-i;
#X obj 120 330 s \$0-n11-i;
#X obj 204 328 s \$0-n12-i;
#X obj 180 80 s \$0-reset;
#X obj 110 40 inlet notes;
#X text 50 10 turn a list into all the toggles;
#X msg 48 179 2;
#X msg 90 180 3;
#X msg 128 179 4;
#X msg 160 180 5, f 2;
#X msg 190 180 6;
#X msg 220 180 7;
#X msg 250 180 8;
#X msg 280 180 9;
#X msg 320 180 10;
#X msg 360 180 11;
#X msg 398 179 12;
#X connect 0 0 1 0;
#X connect 1 0 3 0;
#X connect 1 1 19 0;
#X connect 1 2 20 0;
#X connect 1 3 21 0;
#X connect 1 4 22 0;
#X connect 1 5 23 0;
#X connect 1 6 24 0;
#X connect 1 7 25 0;
#X connect 1 8 26 0;
#X connect 1 9 27 0;
#X connect 1 10 28 0;
#X connect 1 11 29 0;
#X connect 2 0 0 0;
#X connect 2 1 16 0;
#X connect 3 0 4 0;
#X connect 17 0 2 0;
#X connect 19 0 5 0;
#X connect 20 0 6 0;
#X connect 21 0 7 0;
#X connect 22 0 8 0;
#X connect 23 0 9 0;
#X connect 24 0 10 0;
#X connect 25 0 11 0;
#X connect 26 0 12 0;
#X connect 27 0 13 0;
#X connect 28 0 14 0;
#X connect 29 0 15 0;
#X restore 320 120 pd list2toggles;
#N canvas 642 121 641 569 toggles2list 0;
#X obj 90 100 r \$0-n1-o;
#X obj 170 100 r \$0-n2-o;
#X obj 250 100 r \$0-n3-o;
#X obj 330 100 r \$0-n4-o;
#X obj 410 100 r \$0-n5-o;
#X obj 490 100 r \$0-n6-o;
#X obj 90 250 r \$0-n7-o;
#X obj 170 250 r \$0-n8-o;
#X obj 250 250 r \$0-n9-o;
#X obj 320 250 r \$0-n10-o;
#X obj 400 250 r \$0-n11-o;
#X obj 484 248 r \$0-n12-o;
#X obj 130 160 t b f;
#X obj 180 160 t b f;
#X obj 230 160 t b f;
#X obj 280 160 t b f;
#X obj 330 160 t b f;
#X obj 380 160 t b f;
#X obj 220 400 pack 0 0 0 0 0 0 0 0 0 0 0 0;
#X obj 150 300 t b f;
#X obj 200 300 t b f;
#X obj 250 300 t b f;
#X obj 300 300 t b f;
#X obj 350 300 t b f;
#X obj 400 300 t b f;
#X obj 220 440 list-filter;
#X obj 330 440 > 0;
#X obj 220 480 outlet;
#X text 150 30 This creates a list from all the toggles;
#X connect 0 0 12 0;
#X connect 1 0 13 0;
#X connect 2 0 14 0;
#X connect 3 0 15 0;
#X connect 4 0 16 0;
#X connect 5 0 17 0;
#X connect 6 0 19 0;
#X connect 7 0 20 0;
#X connect 8 0 21 0;
#X connect 9 0 22 0;
#X connect 10 0 23 0;
#X connect 11 0 24 0;
#X connect 12 0 18 0;
#X connect 12 1 18 0;
#X connect 13 0 18 0;
#X connect 13 1 18 1;
#X connect 14 0 18 0;
#X connect 14 1 18 2;
#X connect 15 0 18 0;
#X connect 15 1 18 3;
#X connect 16 0 18 0;
#X connect 16 1 18 4;
#X connect 17 0 18 0;
#X connect 17 1 18 5;
#X connect 18 0 25 0;
#X connect 19 0 18 0;
#X connect 19 1 18 6;
#X connect 20 0 18 0;
#X connect 20 1 18 7;
#X connect 21 0 18 0;
#X connect 21 1 18 8;
#X connect 22 0 18 0;
#X connect 22 1 18 9;
#X connect 23 0 18 0;
#X connect 23 1 18 10;
#X connect 24 0 18 0;
#X connect 24 1 18 11;
#X connect 25 0 27 0;
#X connect 25 1 26 0;
#X connect 26 0 25 1;
#X restore 400 640 pd toggles2list;
#X obj 430 700 r \$0-octave_start;
#X obj 650 610 r \$0-octave_range;
#X obj 500 540 r \$0-trigger;
#X obj 300 710 - 1;
#X obj 400 760 * 12;
#X obj 550 760 * 12;
#X obj 574 730 random;
#X obj 508 794 +;
#X obj 460 840 +;
#X obj 650 640 - 1;
#X obj 630 680 f 0;
#X obj 500 570 t b b b b;
#X obj 400 730 f 0;
#X connect 12 0 26 0;
#X connect 25 0 41 0;
#X connect 29 0 27 0;
#X connect 30 0 28 0;
#X connect 32 0 36 0;
#X connect 35 0 34 0;
#X connect 37 0 25 1;
#X connect 38 0 50 1;
#X connect 39 0 47 0;
#X connect 40 0 49 0;
#X connect 41 0 46 0;
#X connect 42 0 45 0;
#X connect 43 0 45 1;
#X connect 44 0 43 0;
#X connect 45 0 46 1;
#X connect 46 0 33 0;
#X connect 47 0 48 1;
#X connect 48 0 44 1;
#X connect 49 0 25 0;
#X connect 49 1 50 0;
#X connect 49 2 44 0;
#X connect 49 3 48 0;
#X connect 50 0 42 0;
#X coords 0 -1 1 1 495 257 1 191 232;
