#N canvas 610 252 2340 1645 12;
#X obj 180 160 cnv 15 60 153 empty empty empty 20 12 0 14 #e0e0e0 #404040
0;
#X obj 200 160 cnv 15 37 110 empty empty empty 20 12 0 14 #000000 #404040
0;
#X obj 250 160 cnv 15 60 153 empty empty empty 20 12 0 14 #e0e0e0 #404040
0;
#X obj 270 160 cnv 15 37 110 empty empty empty 20 12 0 14 #000000 #404040
0;
#X obj 320 160 cnv 15 60 153 empty empty empty 20 12 0 14 #e0e0e0 #404040
0;
#X obj 390 160 cnv 15 60 153 empty empty empty 20 12 0 14 #e0e0e0 #404040
0;
#X obj 410 160 cnv 15 37 110 empty empty empty 20 12 0 14 #000000 #404040
0;
#X obj 460 160 cnv 15 60 153 empty empty empty 20 12 0 14 #e0e0e0 #404040
0;
#X obj 480 160 cnv 15 37 110 empty empty empty 20 12 0 14 #000000 #404040
0;
#X obj 530 160 cnv 15 60 153 empty empty empty 20 12 0 14 #e0e0e0 #404040
0;
#X obj 550 160 cnv 15 37 110 empty empty empty 20 12 0 14 #000000 #404040
0;
#X obj 600 160 cnv 15 60 153 empty empty empty 20 12 0 14 #e0e0e0 #404040
0;
#X obj 180 790 list;
#X obj 530 90 nbx 5 14 0 10 0 0 empty empty octave 0 -8 0 10 #fcfcfc
#000000 #000000 4 256 0;
#X obj 90 600 - 1;
#X obj 130 600 * 12;
#X obj 110 640 +;
#X obj 520 20 inlet octave;
#X obj 90 20 inlet trigger;
#X obj 180 130 tgl 15 0 empty empty empty 17 7 0 10 #fcfcfc #000000
#000000 1 1;
#X obj 210 130 tgl 15 0 empty empty empty 17 7 0 10 #000000 #ffffff
#000000 2 2;
#X obj 250 130 tgl 15 0 empty empty empty 17 7 0 10 #fcfcfc #000000
#000000 3 3;
#X obj 280 130 tgl 15 0 empty empty empty 17 7 0 10 #000000 #ffffff
#000000 4 4;
#X obj 320 130 tgl 15 0 empty empty empty 17 7 0 10 #fcfcfc #000000
#000000 5 5;
#X obj 390 130 tgl 15 0 empty empty empty 17 7 0 10 #fcfcfc #000000
#000000 0 6;
#X obj 420 130 tgl 15 0 empty empty empty 17 7 0 10 #000000 #ffffff
#000000 0 7;
#X obj 460 130 tgl 15 0 empty empty empty 17 7 0 10 #fcfcfc #000000
#000000 0 8;
#X obj 490 130 tgl 15 0 empty empty empty 17 7 0 10 #000000 #ffffff
#000000 0 9;
#X obj 530 130 tgl 15 0 empty empty empty 17 7 0 10 #fcfcfc #000000
#000000 0 10;
#X obj 560 130 tgl 15 0 empty empty empty 17 7 0 10 #000000 #ffffff
#000000 0 11;
#X obj 600 130 tgl 15 0 empty empty empty 17 7 0 10 #fcfcfc #000000
#000000 0 12;
#X obj 191 482 pack 0 0 0 0 0 0 0 0 0 0 0 0;
#X obj 170 380 t b f;
#X obj 220 380 t b f;
#X obj 270 380 t b f;
#X obj 320 380 t b f;
#X obj 370 380 t b f;
#X obj 420 380 t b f;
#X obj 200 420 t b f;
#X obj 250 420 t b f;
#X obj 300 420 t b f;
#X obj 350 420 t b f;
#X obj 400 420 t b f;
#X obj 450 420 t b f;
#X obj 190 520 list-filter;
#X obj 290 520 > 0;
#N canvas 2029 989 450 325 randlistitem 0;
#X obj 80 50 inlet;
#X obj 80 70 t b;
#X obj 200 50 inlet;
#X obj 80 90 random;
#X obj 113 70 r \$0-length;
#X obj 227 130 s \$0-length;
#X obj 80 170 list-nth;
#X obj 80 190 outlet;
#X obj 200 150 s \$0-list;
#X obj 80 150 list;
#X obj 101 130 r \$0-list;
#X obj 80 110 t b f;
#X obj 227 110 list length;
#X obj 200 90 t l l;
#X obj 200 70 list;
#X connect 0 0 1 0;
#X connect 1 0 3 0;
#X connect 2 0 14 0;
#X connect 3 0 11 0;
#X connect 4 0 3 1;
#X connect 6 0 7 0;
#X connect 9 0 6 0;
#X connect 10 0 9 1;
#X connect 11 0 9 0;
#X connect 11 1 6 1;
#X connect 12 0 5 0;
#X connect 13 0 8 0;
#X connect 13 1 12 0;
#X connect 14 0 13 0;
#X restore 90 570 pd randlistitem;
#X obj 110 670 outlet note;
#X obj 590 90 bng 15 250 50 0 empty empty trigger 17 7 0 10 #fcfcfc
#000000 #000000;
#X obj 220 670 print;
#X connect 13 0 15 0;
#X connect 14 0 16 0;
#X connect 15 0 16 1;
#X connect 16 0 47 0;
#X connect 16 0 49 0;
#X connect 17 0 13 0;
#X connect 18 0 46 0;
#X connect 19 0 32 0;
#X connect 20 0 33 0;
#X connect 21 0 34 0;
#X connect 22 0 35 0;
#X connect 23 0 36 0;
#X connect 24 0 37 0;
#X connect 25 0 38 0;
#X connect 26 0 39 0;
#X connect 27 0 40 0;
#X connect 28 0 41 0;
#X connect 29 0 42 0;
#X connect 30 0 43 0;
#X connect 31 0 44 0;
#X connect 32 0 31 0;
#X connect 32 1 31 0;
#X connect 33 0 31 0;
#X connect 33 1 31 1;
#X connect 34 0 31 0;
#X connect 34 1 31 2;
#X connect 35 0 31 0;
#X connect 35 1 31 3;
#X connect 36 0 31 0;
#X connect 36 1 31 4;
#X connect 37 0 31 0;
#X connect 37 1 31 5;
#X connect 38 0 31 0;
#X connect 38 1 31 6;
#X connect 39 0 31 0;
#X connect 39 1 31 7;
#X connect 40 0 31 0;
#X connect 40 1 31 8;
#X connect 41 0 31 0;
#X connect 41 1 31 9;
#X connect 42 0 31 0;
#X connect 42 1 31 10;
#X connect 43 0 31 0;
#X connect 43 1 31 11;
#X connect 44 0 46 1;
#X connect 44 1 45 0;
#X connect 45 0 44 1;
#X connect 46 0 14 0;
#X connect 48 0 46 0;
#X coords 0 -1 1 1 494 266 1 171 70;
