#N canvas 921 167 898 822 12;
#X obj 360 -70 bng 15 250 50 0 empty empty empty 17 7 0 10 #fcfcfc
#000000 #000000;
#X obj 380 -70 bng 15 250 50 0 empty empty empty 17 7 0 10 #fcfcfc
#000000 #000000;
#X obj 400 -70 bng 15 250 50 0 empty empty empty 17 7 0 10 #fcfcfc
#000000 #000000;
#X obj 420 -70 bng 15 250 50 0 empty empty empty 17 7 0 10 #fcfcfc
#000000 #000000;
#X obj 345 -220 tgl 15 0 empty empty empty 17 7 0 10 #fcfcfc #000000
#000000 0 1;
#X obj 310 120 f, f 1;
#X obj 365 -220 tgl 15 0 empty empty empty 17 7 0 10 #fcfcfc #000000
#000000 0 1;
#X obj 340 120 f, f 1;
#X obj 385 -220 tgl 15 0 empty empty empty 17 7 0 10 #fcfcfc #000000
#000000 0 1;
#X obj 370 120 f, f 1;
#X obj 405 -220 tgl 15 0 empty empty empty 17 7 0 10 #fcfcfc #000000
#000000 0 1;
#X obj 400 120 f, f 1;
#X obj 440 -70 bng 15 250 50 0 empty empty empty 17 7 0 10 #fcfcfc
#000000 #000000;
#X obj 460 -70 bng 15 250 50 0 empty empty empty 17 7 0 10 #fcfcfc
#000000 #000000;
#X obj 480 -70 bng 15 250 50 0 empty empty empty 17 7 0 10 #fcfcfc
#000000 #000000;
#X obj 500 -70 bng 15 250 50 0 empty empty empty 17 7 0 10 #fcfcfc
#000000 #000000;
#X obj 425 -220 tgl 15 0 empty empty empty 17 7 0 10 #fcfcfc #000000
#000000 0 1;
#X obj 435 120 f, f 1;
#X obj 445 -220 tgl 15 0 empty empty empty 17 7 0 10 #fcfcfc #000000
#000000 0 1;
#X obj 465 120 f, f 1;
#X obj 465 -220 tgl 15 0 empty empty empty 17 7 0 10 #fcfcfc #000000
#000000 0 1;
#X obj 495 120 f, f 1;
#X obj 485 -220 tgl 15 0 empty empty empty 17 7 0 10 #fcfcfc #000000
#000000 0 1;
#X obj 525 120 f, f 1;
#X obj 520 -70 bng 15 250 50 0 empty empty empty 17 7 0 10 #fcfcfc
#000000 #000000;
#X obj 540 -70 bng 15 250 50 0 empty empty empty 17 7 0 10 #fcfcfc
#000000 #000000;
#X obj 560 -70 bng 15 250 50 0 empty empty empty 17 7 0 10 #fcfcfc
#000000 #000000;
#X obj 580 -70 bng 15 250 50 0 empty empty empty 17 7 0 10 #fcfcfc
#000000 #000000;
#X obj 505 -220 tgl 15 0 empty empty empty 17 7 0 10 #fcfcfc #000000
#000000 0 1;
#X obj 560 120 f, f 1;
#X obj 525 -220 tgl 15 0 empty empty empty 17 7 0 10 #fcfcfc #000000
#000000 0 1;
#X obj 590 120 f, f 1;
#X obj 545 -220 tgl 15 0 empty empty empty 17 7 0 10 #fcfcfc #000000
#000000 0 1;
#X obj 620 120 f, f 1;
#X obj 565 -220 tgl 15 0 empty empty empty 17 7 0 10 #fcfcfc #000000
#000000 0 1;
#X obj 650 120 f, f 1;
#X obj 600 -70 bng 15 250 50 0 empty empty empty 17 7 0 10 #fcfcfc
#000000 #000000;
#X obj 620 -70 bng 15 250 50 0 empty empty empty 17 7 0 10 #fcfcfc
#000000 #000000;
#X obj 640 -70 bng 15 250 50 0 empty empty empty 17 7 0 10 #fcfcfc
#000000 #000000;
#X obj 660 -70 bng 15 250 50 0 empty empty empty 17 7 0 10 #fcfcfc
#000000 #000000;
#X obj 585 -220 tgl 15 0 empty empty empty 17 7 0 10 #fcfcfc #000000
#000000 0 1;
#X obj 685 120 f, f 1;
#X obj 605 -220 tgl 15 0 empty empty empty 17 7 0 10 #fcfcfc #000000
#000000 0 1;
#X obj 715 120 f, f 1;
#X obj 625 -220 tgl 15 0 empty empty empty 17 7 0 10 #fcfcfc #000000
#000000 0 1;
#X obj 740 120 f, f 1;
#X obj 645 -220 tgl 15 0 empty empty empty 17 7 0 10 #fcfcfc #000000
#000000 0 1;
#X obj 765 120 f, f 1;
#X obj 360 -120 select 0 1 2 3 4 5 6 7 8 9 10 11 12 13 14 15;
#X obj 540 245 select 1;
#X obj 540 280 outlet;
#X obj 365 -355 inlet pattern;
#X obj 360 -310 unpack 0 0 0 0 0 0 0 0 0 0 0 0 0 0 0 0;
#X obj 230 -355 inlet step;
#X connect 0 0 5 0;
#X connect 1 0 7 0;
#X connect 2 0 9 0;
#X connect 3 0 11 0;
#X connect 4 0 5 1;
#X connect 5 0 49 0;
#X connect 6 0 7 1;
#X connect 7 0 49 0;
#X connect 8 0 9 1;
#X connect 9 0 49 0;
#X connect 10 0 11 1;
#X connect 11 0 49 0;
#X connect 12 0 17 0;
#X connect 13 0 19 0;
#X connect 14 0 21 0;
#X connect 15 0 23 0;
#X connect 16 0 17 1;
#X connect 17 0 49 0;
#X connect 18 0 19 1;
#X connect 19 0 49 0;
#X connect 20 0 21 1;
#X connect 21 0 49 0;
#X connect 22 0 23 1;
#X connect 23 0 49 0;
#X connect 24 0 29 0;
#X connect 25 0 31 0;
#X connect 26 0 33 0;
#X connect 27 0 35 0;
#X connect 28 0 29 1;
#X connect 29 0 49 0;
#X connect 30 0 31 1;
#X connect 31 0 49 0;
#X connect 32 0 33 1;
#X connect 33 0 49 0;
#X connect 34 0 35 1;
#X connect 35 0 49 0;
#X connect 36 0 41 0;
#X connect 37 0 43 0;
#X connect 38 0 45 0;
#X connect 39 0 47 0;
#X connect 40 0 41 1;
#X connect 41 0 49 0;
#X connect 42 0 43 1;
#X connect 43 0 49 0;
#X connect 44 0 45 1;
#X connect 45 0 49 0;
#X connect 46 0 47 1;
#X connect 47 0 49 0;
#X connect 48 0 0 0;
#X connect 48 1 1 0;
#X connect 48 2 2 0;
#X connect 48 3 3 0;
#X connect 48 4 12 0;
#X connect 48 5 13 0;
#X connect 48 6 14 0;
#X connect 48 7 15 0;
#X connect 48 8 24 0;
#X connect 48 9 25 0;
#X connect 48 10 26 0;
#X connect 48 11 27 0;
#X connect 48 12 36 0;
#X connect 48 13 37 0;
#X connect 48 14 38 0;
#X connect 48 15 39 0;
#X connect 49 0 50 0;
#X connect 51 0 52 0;
#X connect 52 0 4 0;
#X connect 52 1 6 0;
#X connect 52 2 8 0;
#X connect 52 3 10 0;
#X connect 52 4 16 0;
#X connect 52 5 18 0;
#X connect 52 6 20 0;
#X connect 52 7 22 0;
#X connect 52 8 28 0;
#X connect 52 9 30 0;
#X connect 52 10 32 0;
#X connect 52 11 34 0;
#X connect 52 12 40 0;
#X connect 52 13 42 0;
#X connect 52 14 44 0;
#X connect 52 15 46 0;
#X connect 53 0 48 0;
#X coords 0 -1 1 1 323 49 1 340 -247;
