
#N canvas 381 276 546 300 10;
#X obj -288 214 plugin~ Ambisonics-33-rotator;
#N canvas 3 26 450 300 controls 0;
#X obj -3 227 outlet;#X obj 130 0 r \$0/control/1;
#X obj 130 20 / 127;
#X obj 130 40 hid/notescale 180.000000 180.000000;
#X msg 130 60 control #1 \$1;
#X connect 1 0 2 0;
#X connect 2 0 3 0;
#X connect 3 0 4 0;
#X connect 4 0 0 0;

#X restore -288 189 pd controls;
#X obj 105 117 hsl 126 15 0 126 0 0 \$0/control/1 \$1/control/1 Angle 0 8 0 10 -260097 -1 -1 0 1;
#X obj -250 132 inlet~ In-W;
#X connect 3 0 0 1;
#X obj -150 132 inlet~ In-X;
#X connect 4 0 0 2;
#X obj -50 132 inlet~ In-Y;
#X connect 5 0 0 3;
#X obj 50 132 inlet~ In-Z;
#X connect 6 0 0 4;
#X obj 150 132 inlet~ In-R;
#X connect 7 0 0 5;
#X obj 250 132 inlet~ In-S;
#X connect 8 0 0 6;
#X obj 350 132 inlet~ In-T;
#X connect 9 0 0 7;
#X obj 450 132 inlet~ In-U;
#X connect 10 0 0 8;
#X obj 550 132 inlet~ In-V;
#X connect 11 0 0 9;
#X obj 650 132 inlet~ In-K;
#X connect 12 0 0 10;
#X obj 750 132 inlet~ In-L;
#X connect 13 0 0 11;
#X obj 850 132 inlet~ In-M;
#X connect 14 0 0 12;
#X obj 950 132 inlet~ In-N;
#X connect 15 0 0 13;
#X obj 1050 132 inlet~ In-O;
#X connect 16 0 0 14;
#X obj 1150 132 inlet~ In-P;
#X connect 17 0 0 15;
#X obj 1250 132 inlet~ In-Q;
#X connect 18 0 0 16;
#X obj -250 300 outlet~ Out-W;
#X connect 0 1 19 0;
#X obj -150 300 outlet~ Out-X;
#X connect 0 2 20 0;
#X obj -50 300 outlet~ Out-Y;
#X connect 0 3 21 0;
#X obj 50 300 outlet~ Out-Z;
#X connect 0 4 22 0;
#X obj 150 300 outlet~ Out-R;
#X connect 0 5 23 0;
#X obj 250 300 outlet~ Out-S;
#X connect 0 6 24 0;
#X obj 350 300 outlet~ Out-T;
#X connect 0 7 25 0;
#X obj 450 300 outlet~ Out-U;
#X connect 0 8 26 0;
#X obj 550 300 outlet~ Out-V;
#X connect 0 9 27 0;
#X obj 650 300 outlet~ Out-K;
#X connect 0 10 28 0;
#X obj 750 300 outlet~ Out-L;
#X connect 0 11 29 0;
#X obj 850 300 outlet~ Out-M;
#X connect 0 12 30 0;
#X obj 950 300 outlet~ Out-N;
#X connect 0 13 31 0;
#X obj 1050 300 outlet~ Out-O;
#X connect 0 14 32 0;
#X obj 1150 300 outlet~ Out-P;
#X connect 0 15 33 0;
#X obj 1250 300 outlet~ Out-Q;
#X connect 0 16 34 0;

#X connect 1 0 0 0;
#X coords 0 -1 1 1 137 32 1 100 100;
