
#N canvas 381 276 546 300 10;
#X obj -288 214 plugin~ bf2cube;
#N canvas 3 26 450 300 controls 0;
#X obj -3 227 outlet;
#X restore -288 189 pd controls;
#X obj -250 132 inlet~ Input (W);
#X connect 2 0 0 1;
#X obj -150 132 inlet~ Input (X);
#X connect 3 0 0 2;
#X obj -50 132 inlet~ Input (Y);
#X connect 4 0 0 3;
#X obj 50 132 inlet~ Input (Z);
#X connect 5 0 0 4;
#X obj -250 300 outlet~ Output (Base Front Left);
#X connect 0 1 6 0;
#X obj -150 300 outlet~ Output (Base Front Right);
#X connect 0 2 7 0;
#X obj -50 300 outlet~ Output (Base Back Left);
#X connect 0 3 8 0;
#X obj 50 300 outlet~ Output (Base Back Right);
#X connect 0 4 9 0;
#X obj 150 300 outlet~ Output (Top Front Left);
#X connect 0 5 10 0;
#X obj 250 300 outlet~ Output (Top Front Right);
#X connect 0 6 11 0;
#X obj 350 300 outlet~ Output (Top Back Left);
#X connect 0 7 12 0;
#X obj 450 300 outlet~ Output (Top Back Right);
#X connect 0 8 13 0;

#X connect 1 0 0 0;
#X coords 0 -1 1 1 137 12 1 100 100;
