#N canvas 381 285 889 533 10;
#X obj -288 214 plugin~ canyon_delay;
#N canvas 3 26 450 300 controls 0;
#X obj -3 227 outlet;
#X obj 130 0 r \$0/control/1;
#X obj 130 20 / 127;
#X obj 130 40 hid/notescale 0.01 0.99;
#X msg 130 60 control #1 \$1;
#X obj 260 0 r \$0/control/2;
#X obj 260 20 / 127;
#X obj 260 40 hid/notescale 1 1;
#X msg 260 60 control #2 \$1;
#X obj 390 0 r \$0/control/3;
#X obj 390 20 / 127;
#X obj 390 40 hid/notescale 0.01 0.99;
#X msg 390 60 control #3 \$1;
#X obj 520 0 r \$0/control/4;
#X obj 520 20 / 127;
#X obj 520 40 hid/notescale 1 1;
#X msg 520 60 control #4 \$1;
#X obj 650 0 r \$0/control/5;
#X obj 650 20 / 127;
#X obj 650 40 hid/notescale 1 5000;
#X msg 650 60 control #5 \$1;
#X connect 1 0 2 0;
#X connect 2 0 3 0;
#X connect 3 0 4 0;
#X connect 4 0 0 0;
#X connect 5 0 6 0;
#X connect 6 0 7 0;
#X connect 7 0 8 0;
#X connect 8 0 0 0;
#X connect 9 0 10 0;
#X connect 10 0 11 0;
#X connect 11 0 12 0;
#X connect 12 0 0 0;
#X connect 13 0 14 0;
#X connect 14 0 15 0;
#X connect 15 0 16 0;
#X connect 16 0 0 0;
#X connect 17 0 18 0;
#X connect 18 0 19 0;
#X connect 19 0 20 0;
#X connect 20 0 0 0;
#X restore -288 189 pd controls;
#X obj 105 117 hsl 126 15 0 126 0 0 \$0/control/1 \$1/control/1 Left_to_Right_Time_(Seconds)
0 8 0 10 #fc8000 #000000 #000000 0 1;
#X obj 105 134 hsl 126 15 0 126 0 0 \$0/control/2 \$1/control/2 Left_to_Right_Feedback_(Percent)
0 8 0 10 #fc8000 #000000 #000000 0 1;
#X obj 105 151 hsl 126 15 0 126 0 0 \$0/control/3 \$1/control/3 Right_to_Left_Time_(Seconds)
0 8 0 10 #fc8000 #000000 #000000 0 1;
#X obj 105 168 hsl 126 15 0 126 0 0 \$0/control/4 \$1/control/4 Right_to_Left_Feedback_(Percent)
0 8 0 10 #fc8000 #000000 #000000 0 1;
#X obj 105 185 hsl 126 15 0 126 0 0 \$0/control/5 \$1/control/5 Low-Pass_Cutoff_(Hz)
0 8 0 10 #fc8000 #000000 #000000 0 1;
#X obj -250 132 inlet~ In (Left);
#X obj -150 132 inlet~ In (Right);
#X obj -250 300 outlet~ Out (Left);
#X obj -150 300 outlet~ Out (Right);
#X connect 0 1 9 0;
#X connect 0 2 10 0;
#X connect 1 0 0 0;
#X connect 7 0 0 1;
#X connect 8 0 0 2;
#X coords 0 -1 1 1 230 112 1 100 100;
