
#N canvas 381 276 546 300 10;
#X obj -288 214 plugin~ Eq10X2;
#N canvas 3 26 450 300 controls 0;
#X obj -3 227 outlet;#X obj 130 0 r \$0/control/1;
#X obj 130 20 / 127;
#X obj 130 40 hid/notescale 48.000000 24.000000;
#X msg 130 60 control #1 \$1;
#X connect 1 0 2 0;
#X connect 2 0 3 0;
#X connect 3 0 4 0;
#X connect 4 0 0 0;
#X obj 260 0 r \$0/control/2;
#X obj 260 20 / 127;
#X obj 260 40 hid/notescale 48.000000 24.000000;
#X msg 260 60 control #2 \$1;
#X connect 5 0 6 0;
#X connect 6 0 7 0;
#X connect 7 0 8 0;
#X connect 8 0 0 0;
#X obj 390 0 r \$0/control/3;
#X obj 390 20 / 127;
#X obj 390 40 hid/notescale 48.000000 24.000000;
#X msg 390 60 control #3 \$1;
#X connect 9 0 10 0;
#X connect 10 0 11 0;
#X connect 11 0 12 0;
#X connect 12 0 0 0;
#X obj 520 0 r \$0/control/4;
#X obj 520 20 / 127;
#X obj 520 40 hid/notescale 48.000000 24.000000;
#X msg 520 60 control #4 \$1;
#X connect 13 0 14 0;
#X connect 14 0 15 0;
#X connect 15 0 16 0;
#X connect 16 0 0 0;
#X obj 650 0 r \$0/control/5;
#X obj 650 20 / 127;
#X obj 650 40 hid/notescale 48.000000 24.000000;
#X msg 650 60 control #5 \$1;
#X connect 17 0 18 0;
#X connect 18 0 19 0;
#X connect 19 0 20 0;
#X connect 20 0 0 0;
#X obj 780 0 r \$0/control/6;
#X obj 780 20 / 127;
#X obj 780 40 hid/notescale 48.000000 24.000000;
#X msg 780 60 control #6 \$1;
#X connect 21 0 22 0;
#X connect 22 0 23 0;
#X connect 23 0 24 0;
#X connect 24 0 0 0;
#X obj 910 0 r \$0/control/7;
#X obj 910 20 / 127;
#X obj 910 40 hid/notescale 48.000000 24.000000;
#X msg 910 60 control #7 \$1;
#X connect 25 0 26 0;
#X connect 26 0 27 0;
#X connect 27 0 28 0;
#X connect 28 0 0 0;
#X obj 1040 0 r \$0/control/8;
#X obj 1040 20 / 127;
#X obj 1040 40 hid/notescale 48.000000 24.000000;
#X msg 1040 60 control #8 \$1;
#X connect 29 0 30 0;
#X connect 30 0 31 0;
#X connect 31 0 32 0;
#X connect 32 0 0 0;
#X obj 1170 0 r \$0/control/9;
#X obj 1170 20 / 127;
#X obj 1170 40 hid/notescale 48.000000 24.000000;
#X msg 1170 60 control #9 \$1;
#X connect 33 0 34 0;
#X connect 34 0 35 0;
#X connect 35 0 36 0;
#X connect 36 0 0 0;
#X obj 1300 0 r \$0/control/10;
#X obj 1300 20 / 127;
#X obj 1300 40 hid/notescale 48.000000 24.000000;
#X msg 1300 60 control #10 \$1;
#X connect 37 0 38 0;
#X connect 38 0 39 0;
#X connect 39 0 40 0;
#X connect 40 0 0 0;

#X restore -288 189 pd controls;
#X obj 105 117 hsl 126 15 0 126 0 0 \$0/control/1 \$1/control/1 31_Hz 0 8 0 10 -260097 -1 -1 0 1;
#X obj 105 134 hsl 126 15 0 126 0 0 \$0/control/2 \$1/control/2 63_Hz 0 8 0 10 -260097 -1 -1 0 1;
#X obj 105 151 hsl 126 15 0 126 0 0 \$0/control/3 \$1/control/3 125_Hz 0 8 0 10 -260097 -1 -1 0 1;
#X obj 105 168 hsl 126 15 0 126 0 0 \$0/control/4 \$1/control/4 250_Hz 0 8 0 10 -260097 -1 -1 0 1;
#X obj 105 185 hsl 126 15 0 126 0 0 \$0/control/5 \$1/control/5 500_Hz 0 8 0 10 -260097 -1 -1 0 1;
#X obj 105 202 hsl 126 15 0 126 0 0 \$0/control/6 \$1/control/6 1_kHz 0 8 0 10 -260097 -1 -1 0 1;
#X obj 105 219 hsl 126 15 0 126 0 0 \$0/control/7 \$1/control/7 2_kHz 0 8 0 10 -260097 -1 -1 0 1;
#X obj 105 236 hsl 126 15 0 126 0 0 \$0/control/8 \$1/control/8 4_kHz 0 8 0 10 -260097 -1 -1 0 1;
#X obj 105 253 hsl 126 15 0 126 0 0 \$0/control/9 \$1/control/9 8_kHz 0 8 0 10 -260097 -1 -1 0 1;
#X obj 105 270 hsl 126 15 0 126 0 0 \$0/control/10 \$1/control/10 16_kHz 0 8 0 10 -260097 -1 -1 0 1;
#X obj -250 132 inlet~ in.l;
#X connect 12 0 0 1;
#X obj -150 132 inlet~ in.r;
#X connect 13 0 0 2;
#X obj -250 300 outlet~ out.l;
#X connect 0 1 14 0;
#X obj -150 300 outlet~ out.r;
#X connect 0 2 15 0;

#X connect 1 0 0 0;
#X coords 0 -1 1 1 137 212 1 100 100;
