
#N canvas 381 276 546 300 10;
#X obj -288 214 plugin~ fmh2bf;
#N canvas 3 26 450 300 controls 0;
#X obj -3 227 outlet;
#X restore -288 189 pd controls;
#X obj -250 132 inlet~ Input (W);
#X connect 2 0 0 1;
#X obj -150 132 inlet~ Input (X);
#X connect 3 0 0 2;
#X obj -50 132 inlet~ Input (Y);
#X connect 4 0 0 3;
#X obj 50 132 inlet~ Input (Z);
#X connect 5 0 0 4;
#X obj 150 132 inlet~ Input (R);
#X connect 6 0 0 5;
#X obj 250 132 inlet~ Input (S);
#X connect 7 0 0 6;
#X obj 350 132 inlet~ Input (T);
#X connect 8 0 0 7;
#X obj 450 132 inlet~ Input (U);
#X connect 9 0 0 8;
#X obj 550 132 inlet~ Input (V);
#X connect 10 0 0 9;
#X obj -250 300 outlet~ Output (W);
#X connect 0 1 11 0;
#X obj -150 300 outlet~ Output (X);
#X connect 0 2 12 0;
#X obj -50 300 outlet~ Output (Y);
#X connect 0 3 13 0;
#X obj 50 300 outlet~ Output (Z);
#X connect 0 4 14 0;

#X connect 1 0 0 0;
#X coords 0 -1 1 1 137 12 1 100 100;
