
#N canvas 381 276 546 300 10;
#X obj -288 214 plugin~ highpass_iir;
#N canvas 3 26 450 300 controls 0;
#X obj -3 227 outlet;#X obj 130 0 r \$0/control/1;
#X obj 130 20 / 127;
#X obj 130 40 hid/notescale -999.000000 999.000000;
#X msg 130 60 control #1 \$1;
#X connect 1 0 2 0;
#X connect 2 0 3 0;
#X connect 3 0 4 0;
#X connect 4 0 0 0;
#X obj 260 0 r \$0/control/2;
#X obj 260 20 / 127;
#X obj 260 40 hid/notescale 1.000000 10.000000;
#X msg 260 60 control #2 \$1;
#X connect 5 0 6 0;
#X connect 6 0 7 0;
#X connect 7 0 8 0;
#X connect 8 0 0 0;

#X restore -288 189 pd controls;
#X obj 105 117 hsl 126 15 0 126 0 0 \$0/control/1 \$1/control/1 Cutoff_Frequency 0 8 0 10 -260097 -1 -1 0 1;
#X obj 105 134 hsl 126 15 0 126 0 0 \$0/control/2 \$1/control/2 Stages(2_poles_per_stage) 0 8 0 10 -260097 -1 -1 0 1;
#X obj -250 132 inlet~ Input;
#X connect 4 0 0 1;
#X obj -250 300 outlet~ Output;
#X connect 0 1 5 0;

#X connect 1 0 0 0;
#X coords 0 -1 1 1 137 52 1 100 100;
