
#N canvas 381 276 546 300 10;
#X obj -288 214 plugin~ invada_stereo_tube_module_0_1;
#N canvas 3 26 450 300 controls 0;
#X obj -3 227 outlet;#X obj 130 0 r \$0/control/1;
#X obj 130 20 / 127;
#X obj 130 40 hid/notescale 0.000000 18.000000;
#X msg 130 60 control #1 \$1;
#X connect 1 0 2 0;
#X connect 2 0 3 0;
#X connect 3 0 4 0;
#X connect 4 0 0 0;
#X obj 260 0 r \$0/control/2;
#X obj 260 20 / 127;
#X obj 260 40 hid/notescale 1.000000 1.000000;
#X msg 260 60 control #2 \$1;
#X connect 5 0 6 0;
#X connect 6 0 7 0;
#X connect 7 0 8 0;
#X connect 8 0 0 0;
#X obj 390 0 r \$0/control/3;
#X obj 390 20 / 127;
#X obj 390 40 hid/notescale -999.000000 999.000000;
#X msg 390 60 control #3 \$1;
#X connect 9 0 10 0;
#X connect 10 0 11 0;
#X connect 11 0 12 0;
#X connect 12 0 0 0;
#X obj 520 0 r \$0/control/4;
#X obj 520 20 / 127;
#X obj 520 40 hid/notescale 0.000000 100.000000;
#X msg 520 60 control #4 \$1;
#X connect 13 0 14 0;
#X connect 14 0 15 0;
#X connect 15 0 16 0;
#X connect 16 0 0 0;

#X restore -288 189 pd controls;
#X obj 105 117 hsl 126 15 0 126 0 0 \$0/control/1 \$1/control/1 Drive_(dB) 0 8 0 10 -260097 -1 -1 0 1;
#X obj 105 134 hsl 126 15 0 126 0 0 \$0/control/2 \$1/control/2 DC_Offset 0 8 0 10 -260097 -1 -1 0 1;
#X obj 105 151 hsl 126 15 0 126 0 0 \$0/control/3 \$1/control/3 Phase 0 8 0 10 -260097 -1 -1 0 1;
#X obj 105 168 hsl 126 15 0 126 0 0 \$0/control/4 \$1/control/4 Wet/Dry_Mix_(%) 0 8 0 10 -260097 -1 -1 0 1;
#X obj -250 132 inlet~ Input (Left);
#X connect 6 0 0 1;
#X obj -150 132 inlet~ Input (Right);
#X connect 7 0 0 2;
#X obj -250 300 outlet~ Output (Left);
#X connect 0 1 8 0;
#X obj -150 300 outlet~ Output (Right);
#X connect 0 2 9 0;

#X connect 1 0 0 0;
#X coords 0 -1 1 1 137 92 1 100 100;
