
#N canvas 381 276 546 300 10;
#X obj -288 214 plugin~ quantiser100;
#N canvas 3 26 450 300 controls 0;
#X obj -3 227 outlet;#X obj 130 0 r \$0/control/1;
#X obj 130 20 / 127;
#X obj 130 40 hid/notescale -999.000000 999.000000;
#X msg 130 60 control #1 \$1;
#X connect 1 0 2 0;
#X connect 2 0 3 0;
#X connect 3 0 4 0;
#X connect 4 0 0 0;
#X obj 260 0 r \$0/control/2;
#X obj 260 20 / 127;
#X obj 260 40 hid/notescale -999.000000 999.000000;
#X msg 260 60 control #2 \$1;
#X connect 5 0 6 0;
#X connect 6 0 7 0;
#X connect 7 0 8 0;
#X connect 8 0 0 0;
#X obj 390 0 r \$0/control/3;
#X obj 390 20 / 127;
#X obj 390 40 hid/notescale 0.000000 999.000000;
#X msg 390 60 control #3 \$1;
#X connect 9 0 10 0;
#X connect 10 0 11 0;
#X connect 11 0 12 0;
#X connect 12 0 0 0;
#X obj 520 0 r \$0/control/4;
#X obj 520 20 / 127;
#X obj 520 40 hid/notescale 0.000000 2.000000;
#X msg 520 60 control #4 \$1;
#X connect 13 0 14 0;
#X connect 14 0 15 0;
#X connect 15 0 16 0;
#X connect 16 0 0 0;
#X obj 650 0 r \$0/control/5;
#X obj 650 20 / 127;
#X obj 650 40 hid/notescale 1.000000 100.000000;
#X msg 650 60 control #5 \$1;
#X connect 17 0 18 0;
#X connect 18 0 19 0;
#X connect 19 0 20 0;
#X connect 20 0 0 0;
#X obj 780 0 r \$0/control/6;
#X obj 780 20 / 127;
#X obj 780 40 hid/notescale -999.000000 999.000000;
#X msg 780 60 control #6 \$1;
#X connect 21 0 22 0;
#X connect 22 0 23 0;
#X connect 23 0 24 0;
#X connect 24 0 0 0;
#X obj 910 0 r \$0/control/7;
#X obj 910 20 / 127;
#X obj 910 40 hid/notescale -999.000000 999.000000;
#X msg 910 60 control #7 \$1;
#X connect 25 0 26 0;
#X connect 26 0 27 0;
#X connect 27 0 28 0;
#X connect 28 0 0 0;
#X obj 1040 0 r \$0/control/8;
#X obj 1040 20 / 127;
#X obj 1040 40 hid/notescale -999.000000 999.000000;
#X msg 1040 60 control #8 \$1;
#X connect 29 0 30 0;
#X connect 30 0 31 0;
#X connect 31 0 32 0;
#X connect 32 0 0 0;
#X obj 1170 0 r \$0/control/9;
#X obj 1170 20 / 127;
#X obj 1170 40 hid/notescale -999.000000 999.000000;
#X msg 1170 60 control #9 \$1;
#X connect 33 0 34 0;
#X connect 34 0 35 0;
#X connect 35 0 36 0;
#X connect 36 0 0 0;
#X obj 1300 0 r \$0/control/10;
#X obj 1300 20 / 127;
#X obj 1300 40 hid/notescale -999.000000 999.000000;
#X msg 1300 60 control #10 \$1;
#X connect 37 0 38 0;
#X connect 38 0 39 0;
#X connect 39 0 40 0;
#X connect 40 0 0 0;
#X obj 1430 0 r \$0/control/11;
#X obj 1430 20 / 127;
#X obj 1430 40 hid/notescale -999.000000 999.000000;
#X msg 1430 60 control #11 \$1;
#X connect 41 0 42 0;
#X connect 42 0 43 0;
#X connect 43 0 44 0;
#X connect 44 0 0 0;
#X obj 1560 0 r \$0/control/12;
#X obj 1560 20 / 127;
#X obj 1560 40 hid/notescale -999.000000 999.000000;
#X msg 1560 60 control #12 \$1;
#X connect 45 0 46 0;
#X connect 46 0 47 0;
#X connect 47 0 48 0;
#X connect 48 0 0 0;
#X obj 1690 0 r \$0/control/13;
#X obj 1690 20 / 127;
#X obj 1690 40 hid/notescale -999.000000 999.000000;
#X msg 1690 60 control #13 \$1;
#X connect 49 0 50 0;
#X connect 50 0 51 0;
#X connect 51 0 52 0;
#X connect 52 0 0 0;
#X obj 1820 0 r \$0/control/14;
#X obj 1820 20 / 127;
#X obj 1820 40 hid/notescale -999.000000 999.000000;
#X msg 1820 60 control #14 \$1;
#X connect 53 0 54 0;
#X connect 54 0 55 0;
#X connect 55 0 56 0;
#X connect 56 0 0 0;
#X obj 1950 0 r \$0/control/15;
#X obj 1950 20 / 127;
#X obj 1950 40 hid/notescale -999.000000 999.000000;
#X msg 1950 60 control #15 \$1;
#X connect 57 0 58 0;
#X connect 58 0 59 0;
#X connect 59 0 60 0;
#X connect 60 0 0 0;
#X obj 2080 0 r \$0/control/16;
#X obj 2080 20 / 127;
#X obj 2080 40 hid/notescale -999.000000 999.000000;
#X msg 2080 60 control #16 \$1;
#X connect 61 0 62 0;
#X connect 62 0 63 0;
#X connect 63 0 64 0;
#X connect 64 0 0 0;
#X obj 2210 0 r \$0/control/17;
#X obj 2210 20 / 127;
#X obj 2210 40 hid/notescale -999.000000 999.000000;
#X msg 2210 60 control #17 \$1;
#X connect 65 0 66 0;
#X connect 66 0 67 0;
#X connect 67 0 68 0;
#X connect 68 0 0 0;
#X obj 2340 0 r \$0/control/18;
#X obj 2340 20 / 127;
#X obj 2340 40 hid/notescale -999.000000 999.000000;
#X msg 2340 60 control #18 \$1;
#X connect 69 0 70 0;
#X connect 70 0 71 0;
#X connect 71 0 72 0;
#X connect 72 0 0 0;
#X obj 2470 0 r \$0/control/19;
#X obj 2470 20 / 127;
#X obj 2470 40 hid/notescale -999.000000 999.000000;
#X msg 2470 60 control #19 \$1;
#X connect 73 0 74 0;
#X connect 74 0 75 0;
#X connect 75 0 76 0;
#X connect 76 0 0 0;
#X obj 2600 0 r \$0/control/20;
#X obj 2600 20 / 127;
#X obj 2600 40 hid/notescale -999.000000 999.000000;
#X msg 2600 60 control #20 \$1;
#X connect 77 0 78 0;
#X connect 78 0 79 0;
#X connect 79 0 80 0;
#X connect 80 0 0 0;
#X obj 2730 0 r \$0/control/21;
#X obj 2730 20 / 127;
#X obj 2730 40 hid/notescale -999.000000 999.000000;
#X msg 2730 60 control #21 \$1;
#X connect 81 0 82 0;
#X connect 82 0 83 0;
#X connect 83 0 84 0;
#X connect 84 0 0 0;
#X obj 2860 0 r \$0/control/22;
#X obj 2860 20 / 127;
#X obj 2860 40 hid/notescale -999.000000 999.000000;
#X msg 2860 60 control #22 \$1;
#X connect 85 0 86 0;
#X connect 86 0 87 0;
#X connect 87 0 88 0;
#X connect 88 0 0 0;
#X obj 2990 0 r \$0/control/23;
#X obj 2990 20 / 127;
#X obj 2990 40 hid/notescale -999.000000 999.000000;
#X msg 2990 60 control #23 \$1;
#X connect 89 0 90 0;
#X connect 90 0 91 0;
#X connect 91 0 92 0;
#X connect 92 0 0 0;
#X obj 3120 0 r \$0/control/24;
#X obj 3120 20 / 127;
#X obj 3120 40 hid/notescale -999.000000 999.000000;
#X msg 3120 60 control #24 \$1;
#X connect 93 0 94 0;
#X connect 94 0 95 0;
#X connect 95 0 96 0;
#X connect 96 0 0 0;
#X obj 3250 0 r \$0/control/25;
#X obj 3250 20 / 127;
#X obj 3250 40 hid/notescale -999.000000 999.000000;
#X msg 3250 60 control #25 \$1;
#X connect 97 0 98 0;
#X connect 98 0 99 0;
#X connect 99 0 100 0;
#X connect 100 0 0 0;
#X obj 3380 0 r \$0/control/26;
#X obj 3380 20 / 127;
#X obj 3380 40 hid/notescale -999.000000 999.000000;
#X msg 3380 60 control #26 \$1;
#X connect 101 0 102 0;
#X connect 102 0 103 0;
#X connect 103 0 104 0;
#X connect 104 0 0 0;
#X obj 3510 0 r \$0/control/27;
#X obj 3510 20 / 127;
#X obj 3510 40 hid/notescale -999.000000 999.000000;
#X msg 3510 60 control #27 \$1;
#X connect 105 0 106 0;
#X connect 106 0 107 0;
#X connect 107 0 108 0;
#X connect 108 0 0 0;
#X obj 3640 0 r \$0/control/28;
#X obj 3640 20 / 127;
#X obj 3640 40 hid/notescale -999.000000 999.000000;
#X msg 3640 60 control #28 \$1;
#X connect 109 0 110 0;
#X connect 110 0 111 0;
#X connect 111 0 112 0;
#X connect 112 0 0 0;
#X obj 3770 0 r \$0/control/29;
#X obj 3770 20 / 127;
#X obj 3770 40 hid/notescale -999.000000 999.000000;
#X msg 3770 60 control #29 \$1;
#X connect 113 0 114 0;
#X connect 114 0 115 0;
#X connect 115 0 116 0;
#X connect 116 0 0 0;
#X obj 3900 0 r \$0/control/30;
#X obj 3900 20 / 127;
#X obj 3900 40 hid/notescale -999.000000 999.000000;
#X msg 3900 60 control #30 \$1;
#X connect 117 0 118 0;
#X connect 118 0 119 0;
#X connect 119 0 120 0;
#X connect 120 0 0 0;
#X obj 4030 0 r \$0/control/31;
#X obj 4030 20 / 127;
#X obj 4030 40 hid/notescale -999.000000 999.000000;
#X msg 4030 60 control #31 \$1;
#X connect 121 0 122 0;
#X connect 122 0 123 0;
#X connect 123 0 124 0;
#X connect 124 0 0 0;
#X obj 4160 0 r \$0/control/32;
#X obj 4160 20 / 127;
#X obj 4160 40 hid/notescale -999.000000 999.000000;
#X msg 4160 60 control #32 \$1;
#X connect 125 0 126 0;
#X connect 126 0 127 0;
#X connect 127 0 128 0;
#X connect 128 0 0 0;
#X obj 4290 0 r \$0/control/33;
#X obj 4290 20 / 127;
#X obj 4290 40 hid/notescale -999.000000 999.000000;
#X msg 4290 60 control #33 \$1;
#X connect 129 0 130 0;
#X connect 130 0 131 0;
#X connect 131 0 132 0;
#X connect 132 0 0 0;
#X obj 4420 0 r \$0/control/34;
#X obj 4420 20 / 127;
#X obj 4420 40 hid/notescale -999.000000 999.000000;
#X msg 4420 60 control #34 \$1;
#X connect 133 0 134 0;
#X connect 134 0 135 0;
#X connect 135 0 136 0;
#X connect 136 0 0 0;
#X obj 4550 0 r \$0/control/35;
#X obj 4550 20 / 127;
#X obj 4550 40 hid/notescale -999.000000 999.000000;
#X msg 4550 60 control #35 \$1;
#X connect 137 0 138 0;
#X connect 138 0 139 0;
#X connect 139 0 140 0;
#X connect 140 0 0 0;
#X obj 4680 0 r \$0/control/36;
#X obj 4680 20 / 127;
#X obj 4680 40 hid/notescale -999.000000 999.000000;
#X msg 4680 60 control #36 \$1;
#X connect 141 0 142 0;
#X connect 142 0 143 0;
#X connect 143 0 144 0;
#X connect 144 0 0 0;
#X obj 4810 0 r \$0/control/37;
#X obj 4810 20 / 127;
#X obj 4810 40 hid/notescale -999.000000 999.000000;
#X msg 4810 60 control #37 \$1;
#X connect 145 0 146 0;
#X connect 146 0 147 0;
#X connect 147 0 148 0;
#X connect 148 0 0 0;
#X obj 4940 0 r \$0/control/38;
#X obj 4940 20 / 127;
#X obj 4940 40 hid/notescale -999.000000 999.000000;
#X msg 4940 60 control #38 \$1;
#X connect 149 0 150 0;
#X connect 150 0 151 0;
#X connect 151 0 152 0;
#X connect 152 0 0 0;
#X obj 5070 0 r \$0/control/39;
#X obj 5070 20 / 127;
#X obj 5070 40 hid/notescale -999.000000 999.000000;
#X msg 5070 60 control #39 \$1;
#X connect 153 0 154 0;
#X connect 154 0 155 0;
#X connect 155 0 156 0;
#X connect 156 0 0 0;
#X obj 5200 0 r \$0/control/40;
#X obj 5200 20 / 127;
#X obj 5200 40 hid/notescale -999.000000 999.000000;
#X msg 5200 60 control #40 \$1;
#X connect 157 0 158 0;
#X connect 158 0 159 0;
#X connect 159 0 160 0;
#X connect 160 0 0 0;
#X obj 5330 0 r \$0/control/41;
#X obj 5330 20 / 127;
#X obj 5330 40 hid/notescale -999.000000 999.000000;
#X msg 5330 60 control #41 \$1;
#X connect 161 0 162 0;
#X connect 162 0 163 0;
#X connect 163 0 164 0;
#X connect 164 0 0 0;
#X obj 5460 0 r \$0/control/42;
#X obj 5460 20 / 127;
#X obj 5460 40 hid/notescale -999.000000 999.000000;
#X msg 5460 60 control #42 \$1;
#X connect 165 0 166 0;
#X connect 166 0 167 0;
#X connect 167 0 168 0;
#X connect 168 0 0 0;
#X obj 5590 0 r \$0/control/43;
#X obj 5590 20 / 127;
#X obj 5590 40 hid/notescale -999.000000 999.000000;
#X msg 5590 60 control #43 \$1;
#X connect 169 0 170 0;
#X connect 170 0 171 0;
#X connect 171 0 172 0;
#X connect 172 0 0 0;
#X obj 5720 0 r \$0/control/44;
#X obj 5720 20 / 127;
#X obj 5720 40 hid/notescale -999.000000 999.000000;
#X msg 5720 60 control #44 \$1;
#X connect 173 0 174 0;
#X connect 174 0 175 0;
#X connect 175 0 176 0;
#X connect 176 0 0 0;
#X obj 5850 0 r \$0/control/45;
#X obj 5850 20 / 127;
#X obj 5850 40 hid/notescale -999.000000 999.000000;
#X msg 5850 60 control #45 \$1;
#X connect 177 0 178 0;
#X connect 178 0 179 0;
#X connect 179 0 180 0;
#X connect 180 0 0 0;
#X obj 5980 0 r \$0/control/46;
#X obj 5980 20 / 127;
#X obj 5980 40 hid/notescale -999.000000 999.000000;
#X msg 5980 60 control #46 \$1;
#X connect 181 0 182 0;
#X connect 182 0 183 0;
#X connect 183 0 184 0;
#X connect 184 0 0 0;
#X obj 6110 0 r \$0/control/47;
#X obj 6110 20 / 127;
#X obj 6110 40 hid/notescale -999.000000 999.000000;
#X msg 6110 60 control #47 \$1;
#X connect 185 0 186 0;
#X connect 186 0 187 0;
#X connect 187 0 188 0;
#X connect 188 0 0 0;
#X obj 6240 0 r \$0/control/48;
#X obj 6240 20 / 127;
#X obj 6240 40 hid/notescale -999.000000 999.000000;
#X msg 6240 60 control #48 \$1;
#X connect 189 0 190 0;
#X connect 190 0 191 0;
#X connect 191 0 192 0;
#X connect 192 0 0 0;
#X obj 6370 0 r \$0/control/49;
#X obj 6370 20 / 127;
#X obj 6370 40 hid/notescale -999.000000 999.000000;
#X msg 6370 60 control #49 \$1;
#X connect 193 0 194 0;
#X connect 194 0 195 0;
#X connect 195 0 196 0;
#X connect 196 0 0 0;
#X obj 6500 0 r \$0/control/50;
#X obj 6500 20 / 127;
#X obj 6500 40 hid/notescale -999.000000 999.000000;
#X msg 6500 60 control #50 \$1;
#X connect 197 0 198 0;
#X connect 198 0 199 0;
#X connect 199 0 200 0;
#X connect 200 0 0 0;
#X obj 6630 0 r \$0/control/51;
#X obj 6630 20 / 127;
#X obj 6630 40 hid/notescale -999.000000 999.000000;
#X msg 6630 60 control #51 \$1;
#X connect 201 0 202 0;
#X connect 202 0 203 0;
#X connect 203 0 204 0;
#X connect 204 0 0 0;
#X obj 6760 0 r \$0/control/52;
#X obj 6760 20 / 127;
#X obj 6760 40 hid/notescale -999.000000 999.000000;
#X msg 6760 60 control #52 \$1;
#X connect 205 0 206 0;
#X connect 206 0 207 0;
#X connect 207 0 208 0;
#X connect 208 0 0 0;
#X obj 6890 0 r \$0/control/53;
#X obj 6890 20 / 127;
#X obj 6890 40 hid/notescale -999.000000 999.000000;
#X msg 6890 60 control #53 \$1;
#X connect 209 0 210 0;
#X connect 210 0 211 0;
#X connect 211 0 212 0;
#X connect 212 0 0 0;
#X obj 7020 0 r \$0/control/54;
#X obj 7020 20 / 127;
#X obj 7020 40 hid/notescale -999.000000 999.000000;
#X msg 7020 60 control #54 \$1;
#X connect 213 0 214 0;
#X connect 214 0 215 0;
#X connect 215 0 216 0;
#X connect 216 0 0 0;
#X obj 7150 0 r \$0/control/55;
#X obj 7150 20 / 127;
#X obj 7150 40 hid/notescale -999.000000 999.000000;
#X msg 7150 60 control #55 \$1;
#X connect 217 0 218 0;
#X connect 218 0 219 0;
#X connect 219 0 220 0;
#X connect 220 0 0 0;
#X obj 7280 0 r \$0/control/56;
#X obj 7280 20 / 127;
#X obj 7280 40 hid/notescale -999.000000 999.000000;
#X msg 7280 60 control #56 \$1;
#X connect 221 0 222 0;
#X connect 222 0 223 0;
#X connect 223 0 224 0;
#X connect 224 0 0 0;
#X obj 7410 0 r \$0/control/57;
#X obj 7410 20 / 127;
#X obj 7410 40 hid/notescale -999.000000 999.000000;
#X msg 7410 60 control #57 \$1;
#X connect 225 0 226 0;
#X connect 226 0 227 0;
#X connect 227 0 228 0;
#X connect 228 0 0 0;
#X obj 7540 0 r \$0/control/58;
#X obj 7540 20 / 127;
#X obj 7540 40 hid/notescale -999.000000 999.000000;
#X msg 7540 60 control #58 \$1;
#X connect 229 0 230 0;
#X connect 230 0 231 0;
#X connect 231 0 232 0;
#X connect 232 0 0 0;
#X obj 7670 0 r \$0/control/59;
#X obj 7670 20 / 127;
#X obj 7670 40 hid/notescale -999.000000 999.000000;
#X msg 7670 60 control #59 \$1;
#X connect 233 0 234 0;
#X connect 234 0 235 0;
#X connect 235 0 236 0;
#X connect 236 0 0 0;
#X obj 7800 0 r \$0/control/60;
#X obj 7800 20 / 127;
#X obj 7800 40 hid/notescale -999.000000 999.000000;
#X msg 7800 60 control #60 \$1;
#X connect 237 0 238 0;
#X connect 238 0 239 0;
#X connect 239 0 240 0;
#X connect 240 0 0 0;
#X obj 7930 0 r \$0/control/61;
#X obj 7930 20 / 127;
#X obj 7930 40 hid/notescale -999.000000 999.000000;
#X msg 7930 60 control #61 \$1;
#X connect 241 0 242 0;
#X connect 242 0 243 0;
#X connect 243 0 244 0;
#X connect 244 0 0 0;
#X obj 8060 0 r \$0/control/62;
#X obj 8060 20 / 127;
#X obj 8060 40 hid/notescale -999.000000 999.000000;
#X msg 8060 60 control #62 \$1;
#X connect 245 0 246 0;
#X connect 246 0 247 0;
#X connect 247 0 248 0;
#X connect 248 0 0 0;
#X obj 8190 0 r \$0/control/63;
#X obj 8190 20 / 127;
#X obj 8190 40 hid/notescale -999.000000 999.000000;
#X msg 8190 60 control #63 \$1;
#X connect 249 0 250 0;
#X connect 250 0 251 0;
#X connect 251 0 252 0;
#X connect 252 0 0 0;
#X obj 8320 0 r \$0/control/64;
#X obj 8320 20 / 127;
#X obj 8320 40 hid/notescale -999.000000 999.000000;
#X msg 8320 60 control #64 \$1;
#X connect 253 0 254 0;
#X connect 254 0 255 0;
#X connect 255 0 256 0;
#X connect 256 0 0 0;
#X obj 8450 0 r \$0/control/65;
#X obj 8450 20 / 127;
#X obj 8450 40 hid/notescale -999.000000 999.000000;
#X msg 8450 60 control #65 \$1;
#X connect 257 0 258 0;
#X connect 258 0 259 0;
#X connect 259 0 260 0;
#X connect 260 0 0 0;
#X obj 8580 0 r \$0/control/66;
#X obj 8580 20 / 127;
#X obj 8580 40 hid/notescale -999.000000 999.000000;
#X msg 8580 60 control #66 \$1;
#X connect 261 0 262 0;
#X connect 262 0 263 0;
#X connect 263 0 264 0;
#X connect 264 0 0 0;
#X obj 8710 0 r \$0/control/67;
#X obj 8710 20 / 127;
#X obj 8710 40 hid/notescale -999.000000 999.000000;
#X msg 8710 60 control #67 \$1;
#X connect 265 0 266 0;
#X connect 266 0 267 0;
#X connect 267 0 268 0;
#X connect 268 0 0 0;
#X obj 8840 0 r \$0/control/68;
#X obj 8840 20 / 127;
#X obj 8840 40 hid/notescale -999.000000 999.000000;
#X msg 8840 60 control #68 \$1;
#X connect 269 0 270 0;
#X connect 270 0 271 0;
#X connect 271 0 272 0;
#X connect 272 0 0 0;
#X obj 8970 0 r \$0/control/69;
#X obj 8970 20 / 127;
#X obj 8970 40 hid/notescale -999.000000 999.000000;
#X msg 8970 60 control #69 \$1;
#X connect 273 0 274 0;
#X connect 274 0 275 0;
#X connect 275 0 276 0;
#X connect 276 0 0 0;
#X obj 9100 0 r \$0/control/70;
#X obj 9100 20 / 127;
#X obj 9100 40 hid/notescale -999.000000 999.000000;
#X msg 9100 60 control #70 \$1;
#X connect 277 0 278 0;
#X connect 278 0 279 0;
#X connect 279 0 280 0;
#X connect 280 0 0 0;
#X obj 9230 0 r \$0/control/71;
#X obj 9230 20 / 127;
#X obj 9230 40 hid/notescale -999.000000 999.000000;
#X msg 9230 60 control #71 \$1;
#X connect 281 0 282 0;
#X connect 282 0 283 0;
#X connect 283 0 284 0;
#X connect 284 0 0 0;
#X obj 9360 0 r \$0/control/72;
#X obj 9360 20 / 127;
#X obj 9360 40 hid/notescale -999.000000 999.000000;
#X msg 9360 60 control #72 \$1;
#X connect 285 0 286 0;
#X connect 286 0 287 0;
#X connect 287 0 288 0;
#X connect 288 0 0 0;
#X obj 9490 0 r \$0/control/73;
#X obj 9490 20 / 127;
#X obj 9490 40 hid/notescale -999.000000 999.000000;
#X msg 9490 60 control #73 \$1;
#X connect 289 0 290 0;
#X connect 290 0 291 0;
#X connect 291 0 292 0;
#X connect 292 0 0 0;
#X obj 9620 0 r \$0/control/74;
#X obj 9620 20 / 127;
#X obj 9620 40 hid/notescale -999.000000 999.000000;
#X msg 9620 60 control #74 \$1;
#X connect 293 0 294 0;
#X connect 294 0 295 0;
#X connect 295 0 296 0;
#X connect 296 0 0 0;
#X obj 9750 0 r \$0/control/75;
#X obj 9750 20 / 127;
#X obj 9750 40 hid/notescale -999.000000 999.000000;
#X msg 9750 60 control #75 \$1;
#X connect 297 0 298 0;
#X connect 298 0 299 0;
#X connect 299 0 300 0;
#X connect 300 0 0 0;
#X obj 9880 0 r \$0/control/76;
#X obj 9880 20 / 127;
#X obj 9880 40 hid/notescale -999.000000 999.000000;
#X msg 9880 60 control #76 \$1;
#X connect 301 0 302 0;
#X connect 302 0 303 0;
#X connect 303 0 304 0;
#X connect 304 0 0 0;
#X obj 10010 0 r \$0/control/77;
#X obj 10010 20 / 127;
#X obj 10010 40 hid/notescale -999.000000 999.000000;
#X msg 10010 60 control #77 \$1;
#X connect 305 0 306 0;
#X connect 306 0 307 0;
#X connect 307 0 308 0;
#X connect 308 0 0 0;
#X obj 10140 0 r \$0/control/78;
#X obj 10140 20 / 127;
#X obj 10140 40 hid/notescale -999.000000 999.000000;
#X msg 10140 60 control #78 \$1;
#X connect 309 0 310 0;
#X connect 310 0 311 0;
#X connect 311 0 312 0;
#X connect 312 0 0 0;
#X obj 10270 0 r \$0/control/79;
#X obj 10270 20 / 127;
#X obj 10270 40 hid/notescale -999.000000 999.000000;
#X msg 10270 60 control #79 \$1;
#X connect 313 0 314 0;
#X connect 314 0 315 0;
#X connect 315 0 316 0;
#X connect 316 0 0 0;
#X obj 10400 0 r \$0/control/80;
#X obj 10400 20 / 127;
#X obj 10400 40 hid/notescale -999.000000 999.000000;
#X msg 10400 60 control #80 \$1;
#X connect 317 0 318 0;
#X connect 318 0 319 0;
#X connect 319 0 320 0;
#X connect 320 0 0 0;
#X obj 10530 0 r \$0/control/81;
#X obj 10530 20 / 127;
#X obj 10530 40 hid/notescale -999.000000 999.000000;
#X msg 10530 60 control #81 \$1;
#X connect 321 0 322 0;
#X connect 322 0 323 0;
#X connect 323 0 324 0;
#X connect 324 0 0 0;
#X obj 10660 0 r \$0/control/82;
#X obj 10660 20 / 127;
#X obj 10660 40 hid/notescale -999.000000 999.000000;
#X msg 10660 60 control #82 \$1;
#X connect 325 0 326 0;
#X connect 326 0 327 0;
#X connect 327 0 328 0;
#X connect 328 0 0 0;
#X obj 10790 0 r \$0/control/83;
#X obj 10790 20 / 127;
#X obj 10790 40 hid/notescale -999.000000 999.000000;
#X msg 10790 60 control #83 \$1;
#X connect 329 0 330 0;
#X connect 330 0 331 0;
#X connect 331 0 332 0;
#X connect 332 0 0 0;
#X obj 10920 0 r \$0/control/84;
#X obj 10920 20 / 127;
#X obj 10920 40 hid/notescale -999.000000 999.000000;
#X msg 10920 60 control #84 \$1;
#X connect 333 0 334 0;
#X connect 334 0 335 0;
#X connect 335 0 336 0;
#X connect 336 0 0 0;
#X obj 11050 0 r \$0/control/85;
#X obj 11050 20 / 127;
#X obj 11050 40 hid/notescale -999.000000 999.000000;
#X msg 11050 60 control #85 \$1;
#X connect 337 0 338 0;
#X connect 338 0 339 0;
#X connect 339 0 340 0;
#X connect 340 0 0 0;
#X obj 11180 0 r \$0/control/86;
#X obj 11180 20 / 127;
#X obj 11180 40 hid/notescale -999.000000 999.000000;
#X msg 11180 60 control #86 \$1;
#X connect 341 0 342 0;
#X connect 342 0 343 0;
#X connect 343 0 344 0;
#X connect 344 0 0 0;
#X obj 11310 0 r \$0/control/87;
#X obj 11310 20 / 127;
#X obj 11310 40 hid/notescale -999.000000 999.000000;
#X msg 11310 60 control #87 \$1;
#X connect 345 0 346 0;
#X connect 346 0 347 0;
#X connect 347 0 348 0;
#X connect 348 0 0 0;
#X obj 11440 0 r \$0/control/88;
#X obj 11440 20 / 127;
#X obj 11440 40 hid/notescale -999.000000 999.000000;
#X msg 11440 60 control #88 \$1;
#X connect 349 0 350 0;
#X connect 350 0 351 0;
#X connect 351 0 352 0;
#X connect 352 0 0 0;
#X obj 11570 0 r \$0/control/89;
#X obj 11570 20 / 127;
#X obj 11570 40 hid/notescale -999.000000 999.000000;
#X msg 11570 60 control #89 \$1;
#X connect 353 0 354 0;
#X connect 354 0 355 0;
#X connect 355 0 356 0;
#X connect 356 0 0 0;
#X obj 11700 0 r \$0/control/90;
#X obj 11700 20 / 127;
#X obj 11700 40 hid/notescale -999.000000 999.000000;
#X msg 11700 60 control #90 \$1;
#X connect 357 0 358 0;
#X connect 358 0 359 0;
#X connect 359 0 360 0;
#X connect 360 0 0 0;
#X obj 11830 0 r \$0/control/91;
#X obj 11830 20 / 127;
#X obj 11830 40 hid/notescale -999.000000 999.000000;
#X msg 11830 60 control #91 \$1;
#X connect 361 0 362 0;
#X connect 362 0 363 0;
#X connect 363 0 364 0;
#X connect 364 0 0 0;
#X obj 11960 0 r \$0/control/92;
#X obj 11960 20 / 127;
#X obj 11960 40 hid/notescale -999.000000 999.000000;
#X msg 11960 60 control #92 \$1;
#X connect 365 0 366 0;
#X connect 366 0 367 0;
#X connect 367 0 368 0;
#X connect 368 0 0 0;
#X obj 12090 0 r \$0/control/93;
#X obj 12090 20 / 127;
#X obj 12090 40 hid/notescale -999.000000 999.000000;
#X msg 12090 60 control #93 \$1;
#X connect 369 0 370 0;
#X connect 370 0 371 0;
#X connect 371 0 372 0;
#X connect 372 0 0 0;
#X obj 12220 0 r \$0/control/94;
#X obj 12220 20 / 127;
#X obj 12220 40 hid/notescale -999.000000 999.000000;
#X msg 12220 60 control #94 \$1;
#X connect 373 0 374 0;
#X connect 374 0 375 0;
#X connect 375 0 376 0;
#X connect 376 0 0 0;
#X obj 12350 0 r \$0/control/95;
#X obj 12350 20 / 127;
#X obj 12350 40 hid/notescale -999.000000 999.000000;
#X msg 12350 60 control #95 \$1;
#X connect 377 0 378 0;
#X connect 378 0 379 0;
#X connect 379 0 380 0;
#X connect 380 0 0 0;
#X obj 12480 0 r \$0/control/96;
#X obj 12480 20 / 127;
#X obj 12480 40 hid/notescale -999.000000 999.000000;
#X msg 12480 60 control #96 \$1;
#X connect 381 0 382 0;
#X connect 382 0 383 0;
#X connect 383 0 384 0;
#X connect 384 0 0 0;
#X obj 12610 0 r \$0/control/97;
#X obj 12610 20 / 127;
#X obj 12610 40 hid/notescale -999.000000 999.000000;
#X msg 12610 60 control #97 \$1;
#X connect 385 0 386 0;
#X connect 386 0 387 0;
#X connect 387 0 388 0;
#X connect 388 0 0 0;
#X obj 12740 0 r \$0/control/98;
#X obj 12740 20 / 127;
#X obj 12740 40 hid/notescale -999.000000 999.000000;
#X msg 12740 60 control #98 \$1;
#X connect 389 0 390 0;
#X connect 390 0 391 0;
#X connect 391 0 392 0;
#X connect 392 0 0 0;
#X obj 12870 0 r \$0/control/99;
#X obj 12870 20 / 127;
#X obj 12870 40 hid/notescale -999.000000 999.000000;
#X msg 12870 60 control #99 \$1;
#X connect 393 0 394 0;
#X connect 394 0 395 0;
#X connect 395 0 396 0;
#X connect 396 0 0 0;
#X obj 13000 0 r \$0/control/100;
#X obj 13000 20 / 127;
#X obj 13000 40 hid/notescale -999.000000 999.000000;
#X msg 13000 60 control #100 \$1;
#X connect 397 0 398 0;
#X connect 398 0 399 0;
#X connect 399 0 400 0;
#X connect 400 0 0 0;
#X obj 13130 0 r \$0/control/101;
#X obj 13130 20 / 127;
#X obj 13130 40 hid/notescale -999.000000 999.000000;
#X msg 13130 60 control #101 \$1;
#X connect 401 0 402 0;
#X connect 402 0 403 0;
#X connect 403 0 404 0;
#X connect 404 0 0 0;
#X obj 13260 0 r \$0/control/102;
#X obj 13260 20 / 127;
#X obj 13260 40 hid/notescale -999.000000 999.000000;
#X msg 13260 60 control #102 \$1;
#X connect 405 0 406 0;
#X connect 406 0 407 0;
#X connect 407 0 408 0;
#X connect 408 0 0 0;
#X obj 13390 0 r \$0/control/103;
#X obj 13390 20 / 127;
#X obj 13390 40 hid/notescale -999.000000 999.000000;
#X msg 13390 60 control #103 \$1;
#X connect 409 0 410 0;
#X connect 410 0 411 0;
#X connect 411 0 412 0;
#X connect 412 0 0 0;
#X obj 13520 0 r \$0/control/104;
#X obj 13520 20 / 127;
#X obj 13520 40 hid/notescale -999.000000 999.000000;
#X msg 13520 60 control #104 \$1;
#X connect 413 0 414 0;
#X connect 414 0 415 0;
#X connect 415 0 416 0;
#X connect 416 0 0 0;
#X obj 13650 0 r \$0/control/105;
#X obj 13650 20 / 127;
#X obj 13650 40 hid/notescale -999.000000 999.000000;
#X msg 13650 60 control #105 \$1;
#X connect 417 0 418 0;
#X connect 418 0 419 0;
#X connect 419 0 420 0;
#X connect 420 0 0 0;

#X restore -288 189 pd controls;
#X obj 105 117 hsl 126 15 0 126 0 0 \$0/control/1 \$1/control/1 Quantise_Range_Minimum 0 8 0 10 -260097 -1 -1 0 1;
#X obj 105 134 hsl 126 15 0 126 0 0 \$0/control/2 \$1/control/2 Quantise_Range_Maximum 0 8 0 10 -260097 -1 -1 0 1;
#X obj 105 151 hsl 126 15 0 126 0 0 \$0/control/3 \$1/control/3 Match_Range 0 8 0 10 -260097 -1 -1 0 1;
#X obj 105 168 hsl 126 15 0 126 0 0 \$0/control/4 \$1/control/4 Mode_(0_=_Extend,_1_=_Wrap,_2_=_Clip) 0 8 0 10 -260097 -1 -1 0 1;
#X obj 105 185 hsl 126 15 0 126 0 0 \$0/control/5 \$1/control/5 Steps_(1_-_100) 0 8 0 10 -260097 -1 -1 0 1;
#X obj 105 202 hsl 126 15 0 126 0 0 \$0/control/6 \$1/control/6 Value_0 0 8 0 10 -260097 -1 -1 0 1;
#X obj 105 219 hsl 126 15 0 126 0 0 \$0/control/7 \$1/control/7 Value_1 0 8 0 10 -260097 -1 -1 0 1;
#X obj 105 236 hsl 126 15 0 126 0 0 \$0/control/8 \$1/control/8 Value_2 0 8 0 10 -260097 -1 -1 0 1;
#X obj 105 253 hsl 126 15 0 126 0 0 \$0/control/9 \$1/control/9 Value_3 0 8 0 10 -260097 -1 -1 0 1;
#X obj 105 270 hsl 126 15 0 126 0 0 \$0/control/10 \$1/control/10 Value_4 0 8 0 10 -260097 -1 -1 0 1;
#X obj 105 287 hsl 126 15 0 126 0 0 \$0/control/11 \$1/control/11 Value_5 0 8 0 10 -260097 -1 -1 0 1;
#X obj 105 304 hsl 126 15 0 126 0 0 \$0/control/12 \$1/control/12 Value_6 0 8 0 10 -260097 -1 -1 0 1;
#X obj 105 321 hsl 126 15 0 126 0 0 \$0/control/13 \$1/control/13 Value_7 0 8 0 10 -260097 -1 -1 0 1;
#X obj 105 338 hsl 126 15 0 126 0 0 \$0/control/14 \$1/control/14 Value_8 0 8 0 10 -260097 -1 -1 0 1;
#X obj 105 355 hsl 126 15 0 126 0 0 \$0/control/15 \$1/control/15 Value_9 0 8 0 10 -260097 -1 -1 0 1;
#X obj 105 372 hsl 126 15 0 126 0 0 \$0/control/16 \$1/control/16 Value_10 0 8 0 10 -260097 -1 -1 0 1;
#X obj 105 389 hsl 126 15 0 126 0 0 \$0/control/17 \$1/control/17 Value_11 0 8 0 10 -260097 -1 -1 0 1;
#X obj 105 406 hsl 126 15 0 126 0 0 \$0/control/18 \$1/control/18 Value_12 0 8 0 10 -260097 -1 -1 0 1;
#X obj 105 423 hsl 126 15 0 126 0 0 \$0/control/19 \$1/control/19 Value_13 0 8 0 10 -260097 -1 -1 0 1;
#X obj 105 440 hsl 126 15 0 126 0 0 \$0/control/20 \$1/control/20 Value_14 0 8 0 10 -260097 -1 -1 0 1;
#X obj 105 457 hsl 126 15 0 126 0 0 \$0/control/21 \$1/control/21 Value_15 0 8 0 10 -260097 -1 -1 0 1;
#X obj 105 474 hsl 126 15 0 126 0 0 \$0/control/22 \$1/control/22 Value_16 0 8 0 10 -260097 -1 -1 0 1;
#X obj 105 491 hsl 126 15 0 126 0 0 \$0/control/23 \$1/control/23 Value_17 0 8 0 10 -260097 -1 -1 0 1;
#X obj 105 508 hsl 126 15 0 126 0 0 \$0/control/24 \$1/control/24 Value_18 0 8 0 10 -260097 -1 -1 0 1;
#X obj 105 525 hsl 126 15 0 126 0 0 \$0/control/25 \$1/control/25 Value_19 0 8 0 10 -260097 -1 -1 0 1;
#X obj 105 542 hsl 126 15 0 126 0 0 \$0/control/26 \$1/control/26 Value_20 0 8 0 10 -260097 -1 -1 0 1;
#X obj 105 559 hsl 126 15 0 126 0 0 \$0/control/27 \$1/control/27 Value_21 0 8 0 10 -260097 -1 -1 0 1;
#X obj 105 576 hsl 126 15 0 126 0 0 \$0/control/28 \$1/control/28 Value_22 0 8 0 10 -260097 -1 -1 0 1;
#X obj 105 593 hsl 126 15 0 126 0 0 \$0/control/29 \$1/control/29 Value_23 0 8 0 10 -260097 -1 -1 0 1;
#X obj 105 610 hsl 126 15 0 126 0 0 \$0/control/30 \$1/control/30 Value_24 0 8 0 10 -260097 -1 -1 0 1;
#X obj 105 627 hsl 126 15 0 126 0 0 \$0/control/31 \$1/control/31 Value_25 0 8 0 10 -260097 -1 -1 0 1;
#X obj 105 644 hsl 126 15 0 126 0 0 \$0/control/32 \$1/control/32 Value_26 0 8 0 10 -260097 -1 -1 0 1;
#X obj 105 661 hsl 126 15 0 126 0 0 \$0/control/33 \$1/control/33 Value_27 0 8 0 10 -260097 -1 -1 0 1;
#X obj 105 678 hsl 126 15 0 126 0 0 \$0/control/34 \$1/control/34 Value_28 0 8 0 10 -260097 -1 -1 0 1;
#X obj 105 695 hsl 126 15 0 126 0 0 \$0/control/35 \$1/control/35 Value_29 0 8 0 10 -260097 -1 -1 0 1;
#X obj 105 712 hsl 126 15 0 126 0 0 \$0/control/36 \$1/control/36 Value_30 0 8 0 10 -260097 -1 -1 0 1;
#X obj 105 729 hsl 126 15 0 126 0 0 \$0/control/37 \$1/control/37 Value_31 0 8 0 10 -260097 -1 -1 0 1;
#X obj 105 746 hsl 126 15 0 126 0 0 \$0/control/38 \$1/control/38 Value_32 0 8 0 10 -260097 -1 -1 0 1;
#X obj 105 763 hsl 126 15 0 126 0 0 \$0/control/39 \$1/control/39 Value_33 0 8 0 10 -260097 -1 -1 0 1;
#X obj 105 780 hsl 126 15 0 126 0 0 \$0/control/40 \$1/control/40 Value_34 0 8 0 10 -260097 -1 -1 0 1;
#X obj 105 797 hsl 126 15 0 126 0 0 \$0/control/41 \$1/control/41 Value_35 0 8 0 10 -260097 -1 -1 0 1;
#X obj 105 814 hsl 126 15 0 126 0 0 \$0/control/42 \$1/control/42 Value_36 0 8 0 10 -260097 -1 -1 0 1;
#X obj 105 831 hsl 126 15 0 126 0 0 \$0/control/43 \$1/control/43 Value_37 0 8 0 10 -260097 -1 -1 0 1;
#X obj 105 848 hsl 126 15 0 126 0 0 \$0/control/44 \$1/control/44 Value_38 0 8 0 10 -260097 -1 -1 0 1;
#X obj 105 865 hsl 126 15 0 126 0 0 \$0/control/45 \$1/control/45 Value_39 0 8 0 10 -260097 -1 -1 0 1;
#X obj 105 882 hsl 126 15 0 126 0 0 \$0/control/46 \$1/control/46 Value_40 0 8 0 10 -260097 -1 -1 0 1;
#X obj 105 899 hsl 126 15 0 126 0 0 \$0/control/47 \$1/control/47 Value_41 0 8 0 10 -260097 -1 -1 0 1;
#X obj 105 916 hsl 126 15 0 126 0 0 \$0/control/48 \$1/control/48 Value_42 0 8 0 10 -260097 -1 -1 0 1;
#X obj 105 933 hsl 126 15 0 126 0 0 \$0/control/49 \$1/control/49 Value_43 0 8 0 10 -260097 -1 -1 0 1;
#X obj 105 950 hsl 126 15 0 126 0 0 \$0/control/50 \$1/control/50 Value_44 0 8 0 10 -260097 -1 -1 0 1;
#X obj 105 967 hsl 126 15 0 126 0 0 \$0/control/51 \$1/control/51 Value_45 0 8 0 10 -260097 -1 -1 0 1;
#X obj 105 984 hsl 126 15 0 126 0 0 \$0/control/52 \$1/control/52 Value_46 0 8 0 10 -260097 -1 -1 0 1;
#X obj 105 1001 hsl 126 15 0 126 0 0 \$0/control/53 \$1/control/53 Value_47 0 8 0 10 -260097 -1 -1 0 1;
#X obj 105 1018 hsl 126 15 0 126 0 0 \$0/control/54 \$1/control/54 Value_48 0 8 0 10 -260097 -1 -1 0 1;
#X obj 105 1035 hsl 126 15 0 126 0 0 \$0/control/55 \$1/control/55 Value_49 0 8 0 10 -260097 -1 -1 0 1;
#X obj 105 1052 hsl 126 15 0 126 0 0 \$0/control/56 \$1/control/56 Value_50 0 8 0 10 -260097 -1 -1 0 1;
#X obj 105 1069 hsl 126 15 0 126 0 0 \$0/control/57 \$1/control/57 Value_51 0 8 0 10 -260097 -1 -1 0 1;
#X obj 105 1086 hsl 126 15 0 126 0 0 \$0/control/58 \$1/control/58 Value_52 0 8 0 10 -260097 -1 -1 0 1;
#X obj 105 1103 hsl 126 15 0 126 0 0 \$0/control/59 \$1/control/59 Value_53 0 8 0 10 -260097 -1 -1 0 1;
#X obj 105 1120 hsl 126 15 0 126 0 0 \$0/control/60 \$1/control/60 Value_54 0 8 0 10 -260097 -1 -1 0 1;
#X obj 105 1137 hsl 126 15 0 126 0 0 \$0/control/61 \$1/control/61 Value_55 0 8 0 10 -260097 -1 -1 0 1;
#X obj 105 1154 hsl 126 15 0 126 0 0 \$0/control/62 \$1/control/62 Value_56 0 8 0 10 -260097 -1 -1 0 1;
#X obj 105 1171 hsl 126 15 0 126 0 0 \$0/control/63 \$1/control/63 Value_57 0 8 0 10 -260097 -1 -1 0 1;
#X obj 105 1188 hsl 126 15 0 126 0 0 \$0/control/64 \$1/control/64 Value_58 0 8 0 10 -260097 -1 -1 0 1;
#X obj 105 1205 hsl 126 15 0 126 0 0 \$0/control/65 \$1/control/65 Value_59 0 8 0 10 -260097 -1 -1 0 1;
#X obj 105 1222 hsl 126 15 0 126 0 0 \$0/control/66 \$1/control/66 Value_60 0 8 0 10 -260097 -1 -1 0 1;
#X obj 105 1239 hsl 126 15 0 126 0 0 \$0/control/67 \$1/control/67 Value_61 0 8 0 10 -260097 -1 -1 0 1;
#X obj 105 1256 hsl 126 15 0 126 0 0 \$0/control/68 \$1/control/68 Value_62 0 8 0 10 -260097 -1 -1 0 1;
#X obj 105 1273 hsl 126 15 0 126 0 0 \$0/control/69 \$1/control/69 Value_63 0 8 0 10 -260097 -1 -1 0 1;
#X obj 105 1290 hsl 126 15 0 126 0 0 \$0/control/70 \$1/control/70 Value_64 0 8 0 10 -260097 -1 -1 0 1;
#X obj 105 1307 hsl 126 15 0 126 0 0 \$0/control/71 \$1/control/71 Value_65 0 8 0 10 -260097 -1 -1 0 1;
#X obj 105 1324 hsl 126 15 0 126 0 0 \$0/control/72 \$1/control/72 Value_66 0 8 0 10 -260097 -1 -1 0 1;
#X obj 105 1341 hsl 126 15 0 126 0 0 \$0/control/73 \$1/control/73 Value_67 0 8 0 10 -260097 -1 -1 0 1;
#X obj 105 1358 hsl 126 15 0 126 0 0 \$0/control/74 \$1/control/74 Value_68 0 8 0 10 -260097 -1 -1 0 1;
#X obj 105 1375 hsl 126 15 0 126 0 0 \$0/control/75 \$1/control/75 Value_69 0 8 0 10 -260097 -1 -1 0 1;
#X obj 105 1392 hsl 126 15 0 126 0 0 \$0/control/76 \$1/control/76 Value_70 0 8 0 10 -260097 -1 -1 0 1;
#X obj 105 1409 hsl 126 15 0 126 0 0 \$0/control/77 \$1/control/77 Value_71 0 8 0 10 -260097 -1 -1 0 1;
#X obj 105 1426 hsl 126 15 0 126 0 0 \$0/control/78 \$1/control/78 Value_72 0 8 0 10 -260097 -1 -1 0 1;
#X obj 105 1443 hsl 126 15 0 126 0 0 \$0/control/79 \$1/control/79 Value_73 0 8 0 10 -260097 -1 -1 0 1;
#X obj 105 1460 hsl 126 15 0 126 0 0 \$0/control/80 \$1/control/80 Value_74 0 8 0 10 -260097 -1 -1 0 1;
#X obj 105 1477 hsl 126 15 0 126 0 0 \$0/control/81 \$1/control/81 Value_75 0 8 0 10 -260097 -1 -1 0 1;
#X obj 105 1494 hsl 126 15 0 126 0 0 \$0/control/82 \$1/control/82 Value_76 0 8 0 10 -260097 -1 -1 0 1;
#X obj 105 1511 hsl 126 15 0 126 0 0 \$0/control/83 \$1/control/83 Value_77 0 8 0 10 -260097 -1 -1 0 1;
#X obj 105 1528 hsl 126 15 0 126 0 0 \$0/control/84 \$1/control/84 Value_78 0 8 0 10 -260097 -1 -1 0 1;
#X obj 105 1545 hsl 126 15 0 126 0 0 \$0/control/85 \$1/control/85 Value_79 0 8 0 10 -260097 -1 -1 0 1;
#X obj 105 1562 hsl 126 15 0 126 0 0 \$0/control/86 \$1/control/86 Value_80 0 8 0 10 -260097 -1 -1 0 1;
#X obj 105 1579 hsl 126 15 0 126 0 0 \$0/control/87 \$1/control/87 Value_81 0 8 0 10 -260097 -1 -1 0 1;
#X obj 105 1596 hsl 126 15 0 126 0 0 \$0/control/88 \$1/control/88 Value_82 0 8 0 10 -260097 -1 -1 0 1;
#X obj 105 1613 hsl 126 15 0 126 0 0 \$0/control/89 \$1/control/89 Value_83 0 8 0 10 -260097 -1 -1 0 1;
#X obj 105 1630 hsl 126 15 0 126 0 0 \$0/control/90 \$1/control/90 Value_84 0 8 0 10 -260097 -1 -1 0 1;
#X obj 105 1647 hsl 126 15 0 126 0 0 \$0/control/91 \$1/control/91 Value_85 0 8 0 10 -260097 -1 -1 0 1;
#X obj 105 1664 hsl 126 15 0 126 0 0 \$0/control/92 \$1/control/92 Value_86 0 8 0 10 -260097 -1 -1 0 1;
#X obj 105 1681 hsl 126 15 0 126 0 0 \$0/control/93 \$1/control/93 Value_87 0 8 0 10 -260097 -1 -1 0 1;
#X obj 105 1698 hsl 126 15 0 126 0 0 \$0/control/94 \$1/control/94 Value_88 0 8 0 10 -260097 -1 -1 0 1;
#X obj 105 1715 hsl 126 15 0 126 0 0 \$0/control/95 \$1/control/95 Value_89 0 8 0 10 -260097 -1 -1 0 1;
#X obj 105 1732 hsl 126 15 0 126 0 0 \$0/control/96 \$1/control/96 Value_90 0 8 0 10 -260097 -1 -1 0 1;
#X obj 105 1749 hsl 126 15 0 126 0 0 \$0/control/97 \$1/control/97 Value_91 0 8 0 10 -260097 -1 -1 0 1;
#X obj 105 1766 hsl 126 15 0 126 0 0 \$0/control/98 \$1/control/98 Value_92 0 8 0 10 -260097 -1 -1 0 1;
#X obj 105 1783 hsl 126 15 0 126 0 0 \$0/control/99 \$1/control/99 Value_93 0 8 0 10 -260097 -1 -1 0 1;
#X obj 105 1800 hsl 126 15 0 126 0 0 \$0/control/100 \$1/control/100 Value_94 0 8 0 10 -260097 -1 -1 0 1;
#X obj 105 1817 hsl 126 15 0 126 0 0 \$0/control/101 \$1/control/101 Value_95 0 8 0 10 -260097 -1 -1 0 1;
#X obj 105 1834 hsl 126 15 0 126 0 0 \$0/control/102 \$1/control/102 Value_96 0 8 0 10 -260097 -1 -1 0 1;
#X obj 105 1851 hsl 126 15 0 126 0 0 \$0/control/103 \$1/control/103 Value_97 0 8 0 10 -260097 -1 -1 0 1;
#X obj 105 1868 hsl 126 15 0 126 0 0 \$0/control/104 \$1/control/104 Value_98 0 8 0 10 -260097 -1 -1 0 1;
#X obj 105 1885 hsl 126 15 0 126 0 0 \$0/control/105 \$1/control/105 Value_99 0 8 0 10 -260097 -1 -1 0 1;
#X obj -250 132 inlet~ Input;
#X connect 107 0 0 1;
#X obj -250 300 outlet~ Quantised Output;
#X connect 0 1 108 0;
#X obj -150 300 outlet~ Output Changed;
#X connect 0 2 109 0;

#X connect 1 0 0 0;
#X coords 0 -1 1 1 137 2112 1 100 100;
