
#N canvas 381 276 546 300 10;
#X obj -288 214 plugin~ sc4;
#N canvas 3 26 450 300 controls 0;
#X obj -3 227 outlet;#X obj 130 0 r \$0/control/1;
#X obj 130 20 / 127;
#X obj 130 40 hid/notescale 0.000000 1.000000;
#X msg 130 60 control #1 \$1;
#X connect 1 0 2 0;
#X connect 2 0 3 0;
#X connect 3 0 4 0;
#X connect 4 0 0 0;
#X obj 260 0 r \$0/control/2;
#X obj 260 20 / 127;
#X obj 260 40 hid/notescale 1.500000 400.000000;
#X msg 260 60 control #2 \$1;
#X connect 5 0 6 0;
#X connect 6 0 7 0;
#X connect 7 0 8 0;
#X connect 8 0 0 0;
#X obj 390 0 r \$0/control/3;
#X obj 390 20 / 127;
#X obj 390 40 hid/notescale 2.000000 800.000000;
#X msg 390 60 control #3 \$1;
#X connect 9 0 10 0;
#X connect 10 0 11 0;
#X connect 11 0 12 0;
#X connect 12 0 0 0;
#X obj 520 0 r \$0/control/4;
#X obj 520 20 / 127;
#X obj 520 40 hid/notescale 30.000000 0.000000;
#X msg 520 60 control #4 \$1;
#X connect 13 0 14 0;
#X connect 14 0 15 0;
#X connect 15 0 16 0;
#X connect 16 0 0 0;
#X obj 650 0 r \$0/control/5;
#X obj 650 20 / 127;
#X obj 650 40 hid/notescale 1.000000 20.000000;
#X msg 650 60 control #5 \$1;
#X connect 17 0 18 0;
#X connect 18 0 19 0;
#X connect 19 0 20 0;
#X connect 20 0 0 0;
#X obj 780 0 r \$0/control/6;
#X obj 780 20 / 127;
#X obj 780 40 hid/notescale 1.000000 10.000000;
#X msg 780 60 control #6 \$1;
#X connect 21 0 22 0;
#X connect 22 0 23 0;
#X connect 23 0 24 0;
#X connect 24 0 0 0;
#X obj 910 0 r \$0/control/7;
#X obj 910 20 / 127;
#X obj 910 40 hid/notescale 0.000000 24.000000;
#X msg 910 60 control #7 \$1;
#X connect 25 0 26 0;
#X connect 26 0 27 0;
#X connect 27 0 28 0;
#X connect 28 0 0 0;

#X restore -288 189 pd controls;
#X obj 105 117 hsl 126 15 0 126 0 0 \$0/control/1 \$1/control/1 RMS/peak 0 8 0 10 -260097 -1 -1 0 1;
#X obj 105 134 hsl 126 15 0 126 0 0 \$0/control/2 \$1/control/2 Attack_time_(ms) 0 8 0 10 -260097 -1 -1 0 1;
#X obj 105 151 hsl 126 15 0 126 0 0 \$0/control/3 \$1/control/3 Release_time_(ms) 0 8 0 10 -260097 -1 -1 0 1;
#X obj 105 168 hsl 126 15 0 126 0 0 \$0/control/4 \$1/control/4 Threshold_level_(dB) 0 8 0 10 -260097 -1 -1 0 1;
#X obj 105 185 hsl 126 15 0 126 0 0 \$0/control/5 \$1/control/5 Ratio_(1:n) 0 8 0 10 -260097 -1 -1 0 1;
#X obj 105 202 hsl 126 15 0 126 0 0 \$0/control/6 \$1/control/6 Knee_radius_(dB) 0 8 0 10 -260097 -1 -1 0 1;
#X obj 105 219 hsl 126 15 0 126 0 0 \$0/control/7 \$1/control/7 Makeup_gain_(dB) 0 8 0 10 -260097 -1 -1 0 1;
#X obj -250 132 inlet~ Left input;
#X connect 9 0 0 1;
#X obj -150 132 inlet~ Right input;
#X connect 10 0 0 2;
#X obj -250 300 outlet~ Left output;
#X connect 0 1 11 0;
#X obj -150 300 outlet~ Right output;
#X connect 0 2 12 0;
#X obj -250 250 outlet Amplitude (dB);
#X connect 0 1 13 0;
#X obj -150 250 outlet Gain reduction (dB);
#X connect 0 1 14 0;

#X connect 1 0 0 0;
#X coords 0 -1 1 1 137 152 1 100 100;
