
#N canvas 381 276 546 300 10;
#X obj -288 214 plugin~ sequencer32;
#N canvas 3 26 450 300 controls 0;
#X obj -3 227 outlet;#X obj 130 0 r \$0/control/1;
#X obj 130 20 / 127;
#X obj 130 40 hid/notescale 1.000000 32.000000;
#X msg 130 60 control #1 \$1;
#X connect 1 0 2 0;
#X connect 2 0 3 0;
#X connect 3 0 4 0;
#X connect 4 0 0 0;
#X obj 260 0 r \$0/control/2;
#X obj 260 20 / 127;
#X obj 260 40 hid/notescale 0.000000 1.000000;
#X msg 260 60 control #2 \$1;
#X connect 5 0 6 0;
#X connect 6 0 7 0;
#X connect 7 0 8 0;
#X connect 8 0 0 0;
#X obj 390 0 r \$0/control/3;
#X obj 390 20 / 127;
#X obj 390 40 hid/notescale -999.000000 999.000000;
#X msg 390 60 control #3 \$1;
#X connect 9 0 10 0;
#X connect 10 0 11 0;
#X connect 11 0 12 0;
#X connect 12 0 0 0;
#X obj 520 0 r \$0/control/4;
#X obj 520 20 / 127;
#X obj 520 40 hid/notescale -999.000000 999.000000;
#X msg 520 60 control #4 \$1;
#X connect 13 0 14 0;
#X connect 14 0 15 0;
#X connect 15 0 16 0;
#X connect 16 0 0 0;
#X obj 650 0 r \$0/control/5;
#X obj 650 20 / 127;
#X obj 650 40 hid/notescale -999.000000 999.000000;
#X msg 650 60 control #5 \$1;
#X connect 17 0 18 0;
#X connect 18 0 19 0;
#X connect 19 0 20 0;
#X connect 20 0 0 0;
#X obj 780 0 r \$0/control/6;
#X obj 780 20 / 127;
#X obj 780 40 hid/notescale -999.000000 999.000000;
#X msg 780 60 control #6 \$1;
#X connect 21 0 22 0;
#X connect 22 0 23 0;
#X connect 23 0 24 0;
#X connect 24 0 0 0;
#X obj 910 0 r \$0/control/7;
#X obj 910 20 / 127;
#X obj 910 40 hid/notescale -999.000000 999.000000;
#X msg 910 60 control #7 \$1;
#X connect 25 0 26 0;
#X connect 26 0 27 0;
#X connect 27 0 28 0;
#X connect 28 0 0 0;
#X obj 1040 0 r \$0/control/8;
#X obj 1040 20 / 127;
#X obj 1040 40 hid/notescale -999.000000 999.000000;
#X msg 1040 60 control #8 \$1;
#X connect 29 0 30 0;
#X connect 30 0 31 0;
#X connect 31 0 32 0;
#X connect 32 0 0 0;
#X obj 1170 0 r \$0/control/9;
#X obj 1170 20 / 127;
#X obj 1170 40 hid/notescale -999.000000 999.000000;
#X msg 1170 60 control #9 \$1;
#X connect 33 0 34 0;
#X connect 34 0 35 0;
#X connect 35 0 36 0;
#X connect 36 0 0 0;
#X obj 1300 0 r \$0/control/10;
#X obj 1300 20 / 127;
#X obj 1300 40 hid/notescale -999.000000 999.000000;
#X msg 1300 60 control #10 \$1;
#X connect 37 0 38 0;
#X connect 38 0 39 0;
#X connect 39 0 40 0;
#X connect 40 0 0 0;
#X obj 1430 0 r \$0/control/11;
#X obj 1430 20 / 127;
#X obj 1430 40 hid/notescale -999.000000 999.000000;
#X msg 1430 60 control #11 \$1;
#X connect 41 0 42 0;
#X connect 42 0 43 0;
#X connect 43 0 44 0;
#X connect 44 0 0 0;
#X obj 1560 0 r \$0/control/12;
#X obj 1560 20 / 127;
#X obj 1560 40 hid/notescale -999.000000 999.000000;
#X msg 1560 60 control #12 \$1;
#X connect 45 0 46 0;
#X connect 46 0 47 0;
#X connect 47 0 48 0;
#X connect 48 0 0 0;
#X obj 1690 0 r \$0/control/13;
#X obj 1690 20 / 127;
#X obj 1690 40 hid/notescale -999.000000 999.000000;
#X msg 1690 60 control #13 \$1;
#X connect 49 0 50 0;
#X connect 50 0 51 0;
#X connect 51 0 52 0;
#X connect 52 0 0 0;
#X obj 1820 0 r \$0/control/14;
#X obj 1820 20 / 127;
#X obj 1820 40 hid/notescale -999.000000 999.000000;
#X msg 1820 60 control #14 \$1;
#X connect 53 0 54 0;
#X connect 54 0 55 0;
#X connect 55 0 56 0;
#X connect 56 0 0 0;
#X obj 1950 0 r \$0/control/15;
#X obj 1950 20 / 127;
#X obj 1950 40 hid/notescale -999.000000 999.000000;
#X msg 1950 60 control #15 \$1;
#X connect 57 0 58 0;
#X connect 58 0 59 0;
#X connect 59 0 60 0;
#X connect 60 0 0 0;
#X obj 2080 0 r \$0/control/16;
#X obj 2080 20 / 127;
#X obj 2080 40 hid/notescale -999.000000 999.000000;
#X msg 2080 60 control #16 \$1;
#X connect 61 0 62 0;
#X connect 62 0 63 0;
#X connect 63 0 64 0;
#X connect 64 0 0 0;
#X obj 2210 0 r \$0/control/17;
#X obj 2210 20 / 127;
#X obj 2210 40 hid/notescale -999.000000 999.000000;
#X msg 2210 60 control #17 \$1;
#X connect 65 0 66 0;
#X connect 66 0 67 0;
#X connect 67 0 68 0;
#X connect 68 0 0 0;
#X obj 2340 0 r \$0/control/18;
#X obj 2340 20 / 127;
#X obj 2340 40 hid/notescale -999.000000 999.000000;
#X msg 2340 60 control #18 \$1;
#X connect 69 0 70 0;
#X connect 70 0 71 0;
#X connect 71 0 72 0;
#X connect 72 0 0 0;
#X obj 2470 0 r \$0/control/19;
#X obj 2470 20 / 127;
#X obj 2470 40 hid/notescale -999.000000 999.000000;
#X msg 2470 60 control #19 \$1;
#X connect 73 0 74 0;
#X connect 74 0 75 0;
#X connect 75 0 76 0;
#X connect 76 0 0 0;
#X obj 2600 0 r \$0/control/20;
#X obj 2600 20 / 127;
#X obj 2600 40 hid/notescale -999.000000 999.000000;
#X msg 2600 60 control #20 \$1;
#X connect 77 0 78 0;
#X connect 78 0 79 0;
#X connect 79 0 80 0;
#X connect 80 0 0 0;
#X obj 2730 0 r \$0/control/21;
#X obj 2730 20 / 127;
#X obj 2730 40 hid/notescale -999.000000 999.000000;
#X msg 2730 60 control #21 \$1;
#X connect 81 0 82 0;
#X connect 82 0 83 0;
#X connect 83 0 84 0;
#X connect 84 0 0 0;
#X obj 2860 0 r \$0/control/22;
#X obj 2860 20 / 127;
#X obj 2860 40 hid/notescale -999.000000 999.000000;
#X msg 2860 60 control #22 \$1;
#X connect 85 0 86 0;
#X connect 86 0 87 0;
#X connect 87 0 88 0;
#X connect 88 0 0 0;
#X obj 2990 0 r \$0/control/23;
#X obj 2990 20 / 127;
#X obj 2990 40 hid/notescale -999.000000 999.000000;
#X msg 2990 60 control #23 \$1;
#X connect 89 0 90 0;
#X connect 90 0 91 0;
#X connect 91 0 92 0;
#X connect 92 0 0 0;
#X obj 3120 0 r \$0/control/24;
#X obj 3120 20 / 127;
#X obj 3120 40 hid/notescale -999.000000 999.000000;
#X msg 3120 60 control #24 \$1;
#X connect 93 0 94 0;
#X connect 94 0 95 0;
#X connect 95 0 96 0;
#X connect 96 0 0 0;
#X obj 3250 0 r \$0/control/25;
#X obj 3250 20 / 127;
#X obj 3250 40 hid/notescale -999.000000 999.000000;
#X msg 3250 60 control #25 \$1;
#X connect 97 0 98 0;
#X connect 98 0 99 0;
#X connect 99 0 100 0;
#X connect 100 0 0 0;
#X obj 3380 0 r \$0/control/26;
#X obj 3380 20 / 127;
#X obj 3380 40 hid/notescale -999.000000 999.000000;
#X msg 3380 60 control #26 \$1;
#X connect 101 0 102 0;
#X connect 102 0 103 0;
#X connect 103 0 104 0;
#X connect 104 0 0 0;
#X obj 3510 0 r \$0/control/27;
#X obj 3510 20 / 127;
#X obj 3510 40 hid/notescale -999.000000 999.000000;
#X msg 3510 60 control #27 \$1;
#X connect 105 0 106 0;
#X connect 106 0 107 0;
#X connect 107 0 108 0;
#X connect 108 0 0 0;
#X obj 3640 0 r \$0/control/28;
#X obj 3640 20 / 127;
#X obj 3640 40 hid/notescale -999.000000 999.000000;
#X msg 3640 60 control #28 \$1;
#X connect 109 0 110 0;
#X connect 110 0 111 0;
#X connect 111 0 112 0;
#X connect 112 0 0 0;
#X obj 3770 0 r \$0/control/29;
#X obj 3770 20 / 127;
#X obj 3770 40 hid/notescale -999.000000 999.000000;
#X msg 3770 60 control #29 \$1;
#X connect 113 0 114 0;
#X connect 114 0 115 0;
#X connect 115 0 116 0;
#X connect 116 0 0 0;
#X obj 3900 0 r \$0/control/30;
#X obj 3900 20 / 127;
#X obj 3900 40 hid/notescale -999.000000 999.000000;
#X msg 3900 60 control #30 \$1;
#X connect 117 0 118 0;
#X connect 118 0 119 0;
#X connect 119 0 120 0;
#X connect 120 0 0 0;
#X obj 4030 0 r \$0/control/31;
#X obj 4030 20 / 127;
#X obj 4030 40 hid/notescale -999.000000 999.000000;
#X msg 4030 60 control #31 \$1;
#X connect 121 0 122 0;
#X connect 122 0 123 0;
#X connect 123 0 124 0;
#X connect 124 0 0 0;
#X obj 4160 0 r \$0/control/32;
#X obj 4160 20 / 127;
#X obj 4160 40 hid/notescale -999.000000 999.000000;
#X msg 4160 60 control #32 \$1;
#X connect 125 0 126 0;
#X connect 126 0 127 0;
#X connect 127 0 128 0;
#X connect 128 0 0 0;
#X obj 4290 0 r \$0/control/33;
#X obj 4290 20 / 127;
#X obj 4290 40 hid/notescale -999.000000 999.000000;
#X msg 4290 60 control #33 \$1;
#X connect 129 0 130 0;
#X connect 130 0 131 0;
#X connect 131 0 132 0;
#X connect 132 0 0 0;
#X obj 4420 0 r \$0/control/34;
#X obj 4420 20 / 127;
#X obj 4420 40 hid/notescale -999.000000 999.000000;
#X msg 4420 60 control #34 \$1;
#X connect 133 0 134 0;
#X connect 134 0 135 0;
#X connect 135 0 136 0;
#X connect 136 0 0 0;
#X obj 4550 0 r \$0/control/35;
#X obj 4550 20 / 127;
#X obj 4550 40 hid/notescale -999.000000 999.000000;
#X msg 4550 60 control #35 \$1;
#X connect 137 0 138 0;
#X connect 138 0 139 0;
#X connect 139 0 140 0;
#X connect 140 0 0 0;

#X restore -288 189 pd controls;
#X obj 105 117 hsl 126 15 0 126 0 0 \$0/control/1 \$1/control/1 Loop_Steps_(1_-_32) 0 8 0 10 -260097 -1 -1 0 1;
#X obj 105 134 hsl 126 15 0 126 0 0 \$0/control/2 \$1/control/2 Reset_to_Value_on_Gate_Close? 0 8 0 10 -260097 -1 -1 0 1;
#X obj 105 151 hsl 126 15 0 126 0 0 \$0/control/3 \$1/control/3 Closed_Gate_Value 0 8 0 10 -260097 -1 -1 0 1;
#X obj 105 168 hsl 126 15 0 126 0 0 \$0/control/4 \$1/control/4 Value_Step_0 0 8 0 10 -260097 -1 -1 0 1;
#X obj 105 185 hsl 126 15 0 126 0 0 \$0/control/5 \$1/control/5 Value_Step_1 0 8 0 10 -260097 -1 -1 0 1;
#X obj 105 202 hsl 126 15 0 126 0 0 \$0/control/6 \$1/control/6 Value_Step_2 0 8 0 10 -260097 -1 -1 0 1;
#X obj 105 219 hsl 126 15 0 126 0 0 \$0/control/7 \$1/control/7 Value_Step_3 0 8 0 10 -260097 -1 -1 0 1;
#X obj 105 236 hsl 126 15 0 126 0 0 \$0/control/8 \$1/control/8 Value_Step_4 0 8 0 10 -260097 -1 -1 0 1;
#X obj 105 253 hsl 126 15 0 126 0 0 \$0/control/9 \$1/control/9 Value_Step_5 0 8 0 10 -260097 -1 -1 0 1;
#X obj 105 270 hsl 126 15 0 126 0 0 \$0/control/10 \$1/control/10 Value_Step_6 0 8 0 10 -260097 -1 -1 0 1;
#X obj 105 287 hsl 126 15 0 126 0 0 \$0/control/11 \$1/control/11 Value_Step_7 0 8 0 10 -260097 -1 -1 0 1;
#X obj 105 304 hsl 126 15 0 126 0 0 \$0/control/12 \$1/control/12 Value_Step_8 0 8 0 10 -260097 -1 -1 0 1;
#X obj 105 321 hsl 126 15 0 126 0 0 \$0/control/13 \$1/control/13 Value_Step_9 0 8 0 10 -260097 -1 -1 0 1;
#X obj 105 338 hsl 126 15 0 126 0 0 \$0/control/14 \$1/control/14 Value_Step_10 0 8 0 10 -260097 -1 -1 0 1;
#X obj 105 355 hsl 126 15 0 126 0 0 \$0/control/15 \$1/control/15 Value_Step_11 0 8 0 10 -260097 -1 -1 0 1;
#X obj 105 372 hsl 126 15 0 126 0 0 \$0/control/16 \$1/control/16 Value_Step_12 0 8 0 10 -260097 -1 -1 0 1;
#X obj 105 389 hsl 126 15 0 126 0 0 \$0/control/17 \$1/control/17 Value_Step_13 0 8 0 10 -260097 -1 -1 0 1;
#X obj 105 406 hsl 126 15 0 126 0 0 \$0/control/18 \$1/control/18 Value_Step_14 0 8 0 10 -260097 -1 -1 0 1;
#X obj 105 423 hsl 126 15 0 126 0 0 \$0/control/19 \$1/control/19 Value_Step_15 0 8 0 10 -260097 -1 -1 0 1;
#X obj 105 440 hsl 126 15 0 126 0 0 \$0/control/20 \$1/control/20 Value_Step_16 0 8 0 10 -260097 -1 -1 0 1;
#X obj 105 457 hsl 126 15 0 126 0 0 \$0/control/21 \$1/control/21 Value_Step_17 0 8 0 10 -260097 -1 -1 0 1;
#X obj 105 474 hsl 126 15 0 126 0 0 \$0/control/22 \$1/control/22 Value_Step_18 0 8 0 10 -260097 -1 -1 0 1;
#X obj 105 491 hsl 126 15 0 126 0 0 \$0/control/23 \$1/control/23 Value_Step_19 0 8 0 10 -260097 -1 -1 0 1;
#X obj 105 508 hsl 126 15 0 126 0 0 \$0/control/24 \$1/control/24 Value_Step_20 0 8 0 10 -260097 -1 -1 0 1;
#X obj 105 525 hsl 126 15 0 126 0 0 \$0/control/25 \$1/control/25 Value_Step_21 0 8 0 10 -260097 -1 -1 0 1;
#X obj 105 542 hsl 126 15 0 126 0 0 \$0/control/26 \$1/control/26 Value_Step_22 0 8 0 10 -260097 -1 -1 0 1;
#X obj 105 559 hsl 126 15 0 126 0 0 \$0/control/27 \$1/control/27 Value_Step_23 0 8 0 10 -260097 -1 -1 0 1;
#X obj 105 576 hsl 126 15 0 126 0 0 \$0/control/28 \$1/control/28 Value_Step_24 0 8 0 10 -260097 -1 -1 0 1;
#X obj 105 593 hsl 126 15 0 126 0 0 \$0/control/29 \$1/control/29 Value_Step_25 0 8 0 10 -260097 -1 -1 0 1;
#X obj 105 610 hsl 126 15 0 126 0 0 \$0/control/30 \$1/control/30 Value_Step_26 0 8 0 10 -260097 -1 -1 0 1;
#X obj 105 627 hsl 126 15 0 126 0 0 \$0/control/31 \$1/control/31 Value_Step_27 0 8 0 10 -260097 -1 -1 0 1;
#X obj 105 644 hsl 126 15 0 126 0 0 \$0/control/32 \$1/control/32 Value_Step_28 0 8 0 10 -260097 -1 -1 0 1;
#X obj 105 661 hsl 126 15 0 126 0 0 \$0/control/33 \$1/control/33 Value_Step_29 0 8 0 10 -260097 -1 -1 0 1;
#X obj 105 678 hsl 126 15 0 126 0 0 \$0/control/34 \$1/control/34 Value_Step_30 0 8 0 10 -260097 -1 -1 0 1;
#X obj 105 695 hsl 126 15 0 126 0 0 \$0/control/35 \$1/control/35 Value_Step_31 0 8 0 10 -260097 -1 -1 0 1;
#X obj -250 132 inlet~ Gate (Open > 0);
#X connect 37 0 0 1;
#X obj -150 132 inlet~ Step Trigger;
#X connect 38 0 0 2;
#X obj -250 300 outlet~ Value Out;
#X connect 0 1 39 0;

#X connect 1 0 0 0;
#X coords 0 -1 1 1 137 712 1 100 100;
