
#N canvas 381 276 546 300 10;
#X obj -288 214 plugin~ stepMuxer;
#N canvas 3 26 450 300 controls 0;
#X obj -3 227 outlet;#X obj 130 0 r \$0/control/1;
#X obj 130 20 / 127;
#X obj 130 40 hid/notescale 0.000000 100.000000;
#X msg 130 60 control #1 \$1;
#X connect 1 0 2 0;
#X connect 2 0 3 0;
#X connect 3 0 4 0;
#X connect 4 0 0 0;

#X restore -288 189 pd controls;
#X obj 105 117 hsl 126 15 0 126 0 0 \$0/control/1 \$1/control/1 Crossfade_time_(in_ms) 0 8 0 10 -260097 -1 -1 0 1;
#X obj -250 132 inlet~ Clock;
#X connect 3 0 0 1;
#X obj -150 132 inlet~ Input 1;
#X connect 4 0 0 2;
#X obj -50 132 inlet~ Input 2;
#X connect 5 0 0 3;
#X obj 50 132 inlet~ Input 3;
#X connect 6 0 0 4;
#X obj 150 132 inlet~ Input 4;
#X connect 7 0 0 5;
#X obj 250 132 inlet~ Input 5;
#X connect 8 0 0 6;
#X obj 350 132 inlet~ Input 6;
#X connect 9 0 0 7;
#X obj 450 132 inlet~ Input 7;
#X connect 10 0 0 8;
#X obj 550 132 inlet~ Input 8;
#X connect 11 0 0 9;
#X obj -250 300 outlet~ Output;
#X connect 0 1 12 0;

#X connect 1 0 0 0;
#X coords 0 -1 1 1 137 32 1 100 100;
