
#N canvas 381 276 546 300 10;
#X obj -288 214 plugin~ surroundEncoder;
#N canvas 3 26 450 300 controls 0;
#X obj -3 227 outlet;
#X restore -288 189 pd controls;
#X obj -250 132 inlet~ L;
#X connect 2 0 0 1;
#X obj -150 132 inlet~ R;
#X connect 3 0 0 2;
#X obj -50 132 inlet~ C;
#X connect 4 0 0 3;
#X obj 50 132 inlet~ S;
#X connect 5 0 0 4;
#X obj -250 300 outlet~ Lt;
#X connect 0 1 6 0;
#X obj -150 300 outlet~ Rt;
#X connect 0 2 7 0;

#X connect 1 0 0 0;
#X coords 0 -1 1 1 137 12 1 100 100;
