
#N canvas 381 276 546 300 10;
#X obj -288 214 plugin~ tap_equalizer_bw;
#N canvas 3 26 450 300 controls 0;
#X obj -3 227 outlet;#X obj 130 0 r \$0/control/1;
#X obj 130 20 / 127;
#X obj 130 40 hid/notescale 50.000000 20.000000;
#X msg 130 60 control #1 \$1;
#X connect 1 0 2 0;
#X connect 2 0 3 0;
#X connect 3 0 4 0;
#X connect 4 0 0 0;
#X obj 260 0 r \$0/control/2;
#X obj 260 20 / 127;
#X obj 260 40 hid/notescale 50.000000 20.000000;
#X msg 260 60 control #2 \$1;
#X connect 5 0 6 0;
#X connect 6 0 7 0;
#X connect 7 0 8 0;
#X connect 8 0 0 0;
#X obj 390 0 r \$0/control/3;
#X obj 390 20 / 127;
#X obj 390 40 hid/notescale 50.000000 20.000000;
#X msg 390 60 control #3 \$1;
#X connect 9 0 10 0;
#X connect 10 0 11 0;
#X connect 11 0 12 0;
#X connect 12 0 0 0;
#X obj 520 0 r \$0/control/4;
#X obj 520 20 / 127;
#X obj 520 40 hid/notescale 50.000000 20.000000;
#X msg 520 60 control #4 \$1;
#X connect 13 0 14 0;
#X connect 14 0 15 0;
#X connect 15 0 16 0;
#X connect 16 0 0 0;
#X obj 650 0 r \$0/control/5;
#X obj 650 20 / 127;
#X obj 650 40 hid/notescale 50.000000 20.000000;
#X msg 650 60 control #5 \$1;
#X connect 17 0 18 0;
#X connect 18 0 19 0;
#X connect 19 0 20 0;
#X connect 20 0 0 0;
#X obj 780 0 r \$0/control/6;
#X obj 780 20 / 127;
#X obj 780 40 hid/notescale 50.000000 20.000000;
#X msg 780 60 control #6 \$1;
#X connect 21 0 22 0;
#X connect 22 0 23 0;
#X connect 23 0 24 0;
#X connect 24 0 0 0;
#X obj 910 0 r \$0/control/7;
#X obj 910 20 / 127;
#X obj 910 40 hid/notescale 50.000000 20.000000;
#X msg 910 60 control #7 \$1;
#X connect 25 0 26 0;
#X connect 26 0 27 0;
#X connect 27 0 28 0;
#X connect 28 0 0 0;
#X obj 1040 0 r \$0/control/8;
#X obj 1040 20 / 127;
#X obj 1040 40 hid/notescale 50.000000 20.000000;
#X msg 1040 60 control #8 \$1;
#X connect 29 0 30 0;
#X connect 30 0 31 0;
#X connect 31 0 32 0;
#X connect 32 0 0 0;
#X obj 1170 0 r \$0/control/9;
#X obj 1170 20 / 127;
#X obj 1170 40 hid/notescale 40.000000 280.000000;
#X msg 1170 60 control #9 \$1;
#X connect 33 0 34 0;
#X connect 34 0 35 0;
#X connect 35 0 36 0;
#X connect 36 0 0 0;
#X obj 1300 0 r \$0/control/10;
#X obj 1300 20 / 127;
#X obj 1300 40 hid/notescale 100.000000 500.000000;
#X msg 1300 60 control #10 \$1;
#X connect 37 0 38 0;
#X connect 38 0 39 0;
#X connect 39 0 40 0;
#X connect 40 0 0 0;
#X obj 1430 0 r \$0/control/11;
#X obj 1430 20 / 127;
#X obj 1430 40 hid/notescale 200.000000 1000.000000;
#X msg 1430 60 control #11 \$1;
#X connect 41 0 42 0;
#X connect 42 0 43 0;
#X connect 43 0 44 0;
#X connect 44 0 0 0;
#X obj 1560 0 r \$0/control/12;
#X obj 1560 20 / 127;
#X obj 1560 40 hid/notescale 400.000000 2800.000000;
#X msg 1560 60 control #12 \$1;
#X connect 45 0 46 0;
#X connect 46 0 47 0;
#X connect 47 0 48 0;
#X connect 48 0 0 0;
#X obj 1690 0 r \$0/control/13;
#X obj 1690 20 / 127;
#X obj 1690 40 hid/notescale 1000.000000 5000.000000;
#X msg 1690 60 control #13 \$1;
#X connect 49 0 50 0;
#X connect 50 0 51 0;
#X connect 51 0 52 0;
#X connect 52 0 0 0;
#X obj 1820 0 r \$0/control/14;
#X obj 1820 20 / 127;
#X obj 1820 40 hid/notescale 3000.000000 9000.000000;
#X msg 1820 60 control #14 \$1;
#X connect 53 0 54 0;
#X connect 54 0 55 0;
#X connect 55 0 56 0;
#X connect 56 0 0 0;
#X obj 1950 0 r \$0/control/15;
#X obj 1950 20 / 127;
#X obj 1950 40 hid/notescale 6000.000000 18000.000000;
#X msg 1950 60 control #15 \$1;
#X connect 57 0 58 0;
#X connect 58 0 59 0;
#X connect 59 0 60 0;
#X connect 60 0 0 0;
#X obj 2080 0 r \$0/control/16;
#X obj 2080 20 / 127;
#X obj 2080 40 hid/notescale 10000.000000 20000.000000;
#X msg 2080 60 control #16 \$1;
#X connect 61 0 62 0;
#X connect 62 0 63 0;
#X connect 63 0 64 0;
#X connect 64 0 0 0;
#X obj 2210 0 r \$0/control/17;
#X obj 2210 20 / 127;
#X obj 2210 40 hid/notescale 0.100000 5.000000;
#X msg 2210 60 control #17 \$1;
#X connect 65 0 66 0;
#X connect 66 0 67 0;
#X connect 67 0 68 0;
#X connect 68 0 0 0;
#X obj 2340 0 r \$0/control/18;
#X obj 2340 20 / 127;
#X obj 2340 40 hid/notescale 0.100000 5.000000;
#X msg 2340 60 control #18 \$1;
#X connect 69 0 70 0;
#X connect 70 0 71 0;
#X connect 71 0 72 0;
#X connect 72 0 0 0;
#X obj 2470 0 r \$0/control/19;
#X obj 2470 20 / 127;
#X obj 2470 40 hid/notescale 0.100000 5.000000;
#X msg 2470 60 control #19 \$1;
#X connect 73 0 74 0;
#X connect 74 0 75 0;
#X connect 75 0 76 0;
#X connect 76 0 0 0;
#X obj 2600 0 r \$0/control/20;
#X obj 2600 20 / 127;
#X obj 2600 40 hid/notescale 0.100000 5.000000;
#X msg 2600 60 control #20 \$1;
#X connect 77 0 78 0;
#X connect 78 0 79 0;
#X connect 79 0 80 0;
#X connect 80 0 0 0;
#X obj 2730 0 r \$0/control/21;
#X obj 2730 20 / 127;
#X obj 2730 40 hid/notescale 0.100000 5.000000;
#X msg 2730 60 control #21 \$1;
#X connect 81 0 82 0;
#X connect 82 0 83 0;
#X connect 83 0 84 0;
#X connect 84 0 0 0;
#X obj 2860 0 r \$0/control/22;
#X obj 2860 20 / 127;
#X obj 2860 40 hid/notescale 0.100000 5.000000;
#X msg 2860 60 control #22 \$1;
#X connect 85 0 86 0;
#X connect 86 0 87 0;
#X connect 87 0 88 0;
#X connect 88 0 0 0;
#X obj 2990 0 r \$0/control/23;
#X obj 2990 20 / 127;
#X obj 2990 40 hid/notescale 0.100000 5.000000;
#X msg 2990 60 control #23 \$1;
#X connect 89 0 90 0;
#X connect 90 0 91 0;
#X connect 91 0 92 0;
#X connect 92 0 0 0;
#X obj 3120 0 r \$0/control/24;
#X obj 3120 20 / 127;
#X obj 3120 40 hid/notescale 0.100000 5.000000;
#X msg 3120 60 control #24 \$1;
#X connect 93 0 94 0;
#X connect 94 0 95 0;
#X connect 95 0 96 0;
#X connect 96 0 0 0;

#X restore -288 189 pd controls;
#X obj 105 117 hsl 126 15 0 126 0 0 \$0/control/1 \$1/control/1 Band_1_Gain_[dB] 0 8 0 10 -260097 -1 -1 0 1;
#X obj 105 134 hsl 126 15 0 126 0 0 \$0/control/2 \$1/control/2 Band_2_Gain_[dB] 0 8 0 10 -260097 -1 -1 0 1;
#X obj 105 151 hsl 126 15 0 126 0 0 \$0/control/3 \$1/control/3 Band_3_Gain_[dB] 0 8 0 10 -260097 -1 -1 0 1;
#X obj 105 168 hsl 126 15 0 126 0 0 \$0/control/4 \$1/control/4 Band_4_Gain_[dB] 0 8 0 10 -260097 -1 -1 0 1;
#X obj 105 185 hsl 126 15 0 126 0 0 \$0/control/5 \$1/control/5 Band_5_Gain_[dB] 0 8 0 10 -260097 -1 -1 0 1;
#X obj 105 202 hsl 126 15 0 126 0 0 \$0/control/6 \$1/control/6 Band_6_Gain_[dB] 0 8 0 10 -260097 -1 -1 0 1;
#X obj 105 219 hsl 126 15 0 126 0 0 \$0/control/7 \$1/control/7 Band_7_Gain_[dB] 0 8 0 10 -260097 -1 -1 0 1;
#X obj 105 236 hsl 126 15 0 126 0 0 \$0/control/8 \$1/control/8 Band_8_Gain_[dB] 0 8 0 10 -260097 -1 -1 0 1;
#X obj 105 253 hsl 126 15 0 126 0 0 \$0/control/9 \$1/control/9 Band_1_Freq_[Hz] 0 8 0 10 -260097 -1 -1 0 1;
#X obj 105 270 hsl 126 15 0 126 0 0 \$0/control/10 \$1/control/10 Band_2_Freq_[Hz] 0 8 0 10 -260097 -1 -1 0 1;
#X obj 105 287 hsl 126 15 0 126 0 0 \$0/control/11 \$1/control/11 Band_3_Freq_[Hz] 0 8 0 10 -260097 -1 -1 0 1;
#X obj 105 304 hsl 126 15 0 126 0 0 \$0/control/12 \$1/control/12 Band_4_Freq_[Hz] 0 8 0 10 -260097 -1 -1 0 1;
#X obj 105 321 hsl 126 15 0 126 0 0 \$0/control/13 \$1/control/13 Band_5_Freq_[Hz] 0 8 0 10 -260097 -1 -1 0 1;
#X obj 105 338 hsl 126 15 0 126 0 0 \$0/control/14 \$1/control/14 Band_6_Freq_[Hz] 0 8 0 10 -260097 -1 -1 0 1;
#X obj 105 355 hsl 126 15 0 126 0 0 \$0/control/15 \$1/control/15 Band_7_Freq_[Hz] 0 8 0 10 -260097 -1 -1 0 1;
#X obj 105 372 hsl 126 15 0 126 0 0 \$0/control/16 \$1/control/16 Band_8_Freq_[Hz] 0 8 0 10 -260097 -1 -1 0 1;
#X obj 105 389 hsl 126 15 0 126 0 0 \$0/control/17 \$1/control/17 Band_1_Bandwidth_[octaves] 0 8 0 10 -260097 -1 -1 0 1;
#X obj 105 406 hsl 126 15 0 126 0 0 \$0/control/18 \$1/control/18 Band_2_Bandwidth_[octaves] 0 8 0 10 -260097 -1 -1 0 1;
#X obj 105 423 hsl 126 15 0 126 0 0 \$0/control/19 \$1/control/19 Band_3_Bandwidth_[octaves] 0 8 0 10 -260097 -1 -1 0 1;
#X obj 105 440 hsl 126 15 0 126 0 0 \$0/control/20 \$1/control/20 Band_4_Bandwidth_[octaves] 0 8 0 10 -260097 -1 -1 0 1;
#X obj 105 457 hsl 126 15 0 126 0 0 \$0/control/21 \$1/control/21 Band_5_Bandwidth_[octaves] 0 8 0 10 -260097 -1 -1 0 1;
#X obj 105 474 hsl 126 15 0 126 0 0 \$0/control/22 \$1/control/22 Band_6_Bandwidth_[octaves] 0 8 0 10 -260097 -1 -1 0 1;
#X obj 105 491 hsl 126 15 0 126 0 0 \$0/control/23 \$1/control/23 Band_7_Bandwidth_[octaves] 0 8 0 10 -260097 -1 -1 0 1;
#X obj 105 508 hsl 126 15 0 126 0 0 \$0/control/24 \$1/control/24 Band_8_Bandwidth_[octaves] 0 8 0 10 -260097 -1 -1 0 1;
#X obj -250 132 inlet~ Input;
#X connect 26 0 0 1;
#X obj -250 300 outlet~ Output;
#X connect 0 1 27 0;

#X connect 1 0 0 0;
#X coords 0 -1 1 1 137 492 1 100 100;
