#N canvas 84 163 1293 771 12;
#X obj 64 268 netreceive 13000;
#X obj 170 300 print connections;
#X obj 20 300 route instrument;
#X obj 20 330 s instrument;
#X obj 560 570 r soundfont;
#X obj 590 680 dac~;
#X obj 561 617 fluid~ ../puredata/TimGM6mb, f 28;
#X msg 793 50 \; pd dsp 1 \;;
#X obj 790 20 loadbang;
#X obj 280 390 notein;
#X obj 260 450 pack 0 0 0;
#X obj 50 425 pack 0 0 0;
#X obj 50 400 ctlin;
#X obj 50 530 bendin 0 1;
#X obj 50 555 pack 0 0;
#X msg 870 50 \; instrument 1 \;;
#X floatatom 500 80 5 1 128 2 instrument instrument -, f 5;
#X msg 500 130 \; soundfont prog 1 \$1 \; net send instrument \$1 \;
;
#X obj 80 130 r instument;
#X obj 78 156 print instrument;
#X obj 60 200 r net;
#X msg 50 445 \; soundfont cc \$3 \$2 \$1 \;;
#X msg 50 580 \; soundfont b \$2 \$1 \;;
#X msg 260 480 \; soundfont note \$3 \$1 \$2 \; net send note \$1 \$2
\;;
#X connect 0 0 2 0;
#X connect 0 1 1 0;
#X connect 2 0 3 0;
#X connect 4 0 6 0;
#X connect 6 0 5 0;
#X connect 6 1 5 1;
#X connect 8 0 7 0;
#X connect 8 0 15 0;
#X connect 9 0 10 0;
#X connect 9 1 10 1;
#X connect 9 2 10 2;
#X connect 10 0 23 0;
#X connect 11 0 21 0;
#X connect 12 0 11 0;
#X connect 12 1 11 1;
#X connect 12 2 11 2;
#X connect 13 0 14 0;
#X connect 13 1 14 1;
#X connect 14 0 22 0;
#X connect 16 0 17 0;
#X connect 18 0 19 0;
#X connect 20 0 0 0;
