#N canvas 1175 1047 703 504 12;
#X obj 50 50 sigmund~ -npeaks 8 peaks;
#X obj 50 20 adc~ 1;
#X obj 50 80 s peaks;
#X obj 150 440 dac~;
#N canvas 1725 583 441 412 sigslew 0;
#X obj 150 -500 r peaks;
#X obj 150 -440 unpack 0 0 0 0;
#X obj 90 -280 line~;
#X obj 90 -250 osc~;
#X obj 130 -210 *~;
#X obj 70 -330 pack 0 10;
#X obj 130 -360 r oscslew;
#X obj 200 -320 pack 0 10;
#X obj 260 -350 r ampslew;
#X obj 190 -270 line~;
#X obj 150 -470 route \$1;
#X obj 140 -160 outlet~;
#X connect 0 0 10 0;
#X connect 1 0 5 0;
#X connect 1 1 7 0;
#X connect 2 0 3 0;
#X connect 3 0 4 0;
#X connect 4 0 11 0;
#X connect 5 0 2 0;
#X connect 6 0 5 1;
#X connect 7 0 9 0;
#X connect 8 0 7 1;
#X connect 9 0 4 1;
#X connect 10 0 1 0;
#X restore 410 120 pd sigslew 0;
#N canvas 0 22 450 300 sigslew 0;
#X obj 150 -500 r peaks;
#X obj 150 -440 unpack 0 0 0 0;
#X obj 90 -280 line~;
#X obj 90 -250 osc~;
#X obj 130 -210 *~;
#X obj 70 -330 pack 0 10;
#X obj 130 -360 r oscslew;
#X obj 200 -320 pack 0 10;
#X obj 260 -350 r ampslew;
#X obj 190 -270 line~;
#X obj 150 -470 route \$1;
#X obj 40 -420 print \$1;
#X obj 140 -160 outlet~;
#X connect 0 0 10 0;
#X connect 1 0 5 0;
#X connect 1 1 7 0;
#X connect 2 0 3 0;
#X connect 3 0 4 0;
#X connect 4 0 12 0;
#X connect 5 0 2 0;
#X connect 6 0 5 1;
#X connect 7 0 9 0;
#X connect 8 0 7 1;
#X connect 9 0 4 1;
#X connect 10 0 1 0;
#X connect 10 0 11 0;
#X restore 410 150 pd sigslew 1;
#N canvas 0 22 450 300 sigslew 0;
#X obj 150 -500 r peaks;
#X obj 150 -440 unpack 0 0 0 0;
#X obj 90 -280 line~;
#X obj 90 -250 osc~;
#X obj 130 -210 *~;
#X obj 70 -330 pack 0 10;
#X obj 130 -360 r oscslew;
#X obj 200 -320 pack 0 10;
#X obj 260 -350 r ampslew;
#X obj 190 -270 line~;
#X obj 150 -470 route \$1;
#X obj 40 -420 print \$1;
#X obj 140 -160 outlet~;
#X connect 0 0 10 0;
#X connect 1 0 5 0;
#X connect 1 1 7 0;
#X connect 2 0 3 0;
#X connect 3 0 4 0;
#X connect 4 0 12 0;
#X connect 5 0 2 0;
#X connect 6 0 5 1;
#X connect 7 0 9 0;
#X connect 8 0 7 1;
#X connect 9 0 4 1;
#X connect 10 0 1 0;
#X connect 10 0 11 0;
#X restore 410 200 pd sigslew 2;
#N canvas 0 22 450 300 sigslew 0;
#X obj 150 -500 r peaks;
#X obj 150 -440 unpack 0 0 0 0;
#X obj 90 -280 line~;
#X obj 90 -250 osc~;
#X obj 130 -210 *~;
#X obj 70 -330 pack 0 10;
#X obj 130 -360 r oscslew;
#X obj 200 -320 pack 0 10;
#X obj 260 -350 r ampslew;
#X obj 190 -270 line~;
#X obj 150 -470 route \$1;
#X obj 40 -420 print \$1;
#X obj 140 -160 outlet~;
#X connect 0 0 10 0;
#X connect 1 0 5 0;
#X connect 1 1 7 0;
#X connect 2 0 3 0;
#X connect 3 0 4 0;
#X connect 4 0 12 0;
#X connect 5 0 2 0;
#X connect 6 0 5 1;
#X connect 7 0 9 0;
#X connect 8 0 7 1;
#X connect 9 0 4 1;
#X connect 10 0 1 0;
#X connect 10 0 11 0;
#X restore 410 240 pd sigslew 3;
#N canvas 0 22 450 300 sigslew 0;
#X obj 150 -500 r peaks;
#X obj 150 -440 unpack 0 0 0 0;
#X obj 90 -280 line~;
#X obj 90 -250 osc~;
#X obj 130 -210 *~;
#X obj 70 -330 pack 0 10;
#X obj 130 -360 r oscslew;
#X obj 200 -320 pack 0 10;
#X obj 260 -350 r ampslew;
#X obj 190 -270 line~;
#X obj 150 -470 route \$1;
#X obj 40 -420 print \$1;
#X obj 140 -160 outlet~;
#X connect 0 0 10 0;
#X connect 1 0 5 0;
#X connect 1 1 7 0;
#X connect 2 0 3 0;
#X connect 3 0 4 0;
#X connect 4 0 12 0;
#X connect 5 0 2 0;
#X connect 6 0 5 1;
#X connect 7 0 9 0;
#X connect 8 0 7 1;
#X connect 9 0 4 1;
#X connect 10 0 1 0;
#X connect 10 0 11 0;
#X restore 410 280 pd sigslew 4;
#N canvas 0 22 450 300 sigslew 0;
#X obj 150 -500 r peaks;
#X obj 150 -440 unpack 0 0 0 0;
#X obj 90 -280 line~;
#X obj 90 -250 osc~;
#X obj 130 -210 *~;
#X obj 70 -330 pack 0 10;
#X obj 130 -360 r oscslew;
#X obj 200 -320 pack 0 10;
#X obj 260 -350 r ampslew;
#X obj 190 -270 line~;
#X obj 150 -470 route \$1;
#X obj 40 -420 print \$1;
#X obj 140 -160 outlet~;
#X connect 0 0 10 0;
#X connect 1 0 5 0;
#X connect 1 1 7 0;
#X connect 2 0 3 0;
#X connect 3 0 4 0;
#X connect 4 0 12 0;
#X connect 5 0 2 0;
#X connect 6 0 5 1;
#X connect 7 0 9 0;
#X connect 8 0 7 1;
#X connect 9 0 4 1;
#X connect 10 0 1 0;
#X connect 10 0 11 0;
#X restore 410 320 pd sigslew 5;
#N canvas 0 22 450 300 sigslew 0;
#X obj 150 -500 r peaks;
#X obj 150 -440 unpack 0 0 0 0;
#X obj 90 -280 line~;
#X obj 90 -250 osc~;
#X obj 130 -210 *~;
#X obj 70 -330 pack 0 10;
#X obj 130 -360 r oscslew;
#X obj 200 -320 pack 0 10;
#X obj 260 -350 r ampslew;
#X obj 190 -270 line~;
#X obj 150 -470 route \$1;
#X obj 40 -420 print \$1;
#X obj 140 -160 outlet~;
#X connect 0 0 10 0;
#X connect 1 0 5 0;
#X connect 1 1 7 0;
#X connect 2 0 3 0;
#X connect 3 0 4 0;
#X connect 4 0 12 0;
#X connect 5 0 2 0;
#X connect 6 0 5 1;
#X connect 7 0 9 0;
#X connect 8 0 7 1;
#X connect 9 0 4 1;
#X connect 10 0 1 0;
#X connect 10 0 11 0;
#X restore 410 360 pd sigslew 6;
#N canvas 0 22 450 300 sigslew 0;
#X obj 150 -500 r peaks;
#X obj 150 -440 unpack 0 0 0 0;
#X obj 90 -280 line~;
#X obj 90 -250 osc~;
#X obj 130 -210 *~;
#X obj 70 -330 pack 0 10;
#X obj 130 -360 r oscslew;
#X obj 200 -320 pack 0 10;
#X obj 260 -350 r ampslew;
#X obj 190 -270 line~;
#X obj 150 -470 route \$1;
#X obj 40 -420 print \$1;
#X obj 140 -160 outlet~;
#X connect 0 0 10 0;
#X connect 1 0 5 0;
#X connect 1 1 7 0;
#X connect 2 0 3 0;
#X connect 3 0 4 0;
#X connect 4 0 12 0;
#X connect 5 0 2 0;
#X connect 6 0 5 1;
#X connect 7 0 9 0;
#X connect 8 0 7 1;
#X connect 9 0 4 1;
#X connect 10 0 1 0;
#X connect 10 0 11 0;
#X restore 410 400 pd sigslew 7;
#X obj 320 40 hsl 128 15 0 127 0 1 oscslew empty osc -2 -8 0 10 #fcfcfc
#000000 #000000 1000 1;
#X obj 320 80 hsl 128 15 0 127 0 1 ampslew empty amp -2 -8 0 10 #fcfcfc
#000000 #000000 1200 1;
#X connect 0 0 2 0;
#X connect 1 0 0 0;
#X connect 4 0 3 0;
#X connect 4 0 3 1;
#X connect 5 0 3 0;
#X connect 5 0 3 1;
#X connect 6 0 3 0;
#X connect 6 0 3 1;
#X connect 7 0 3 0;
#X connect 7 0 3 1;
#X connect 8 0 3 0;
#X connect 8 0 3 1;
#X connect 9 0 3 0;
#X connect 9 0 3 1;
#X connect 10 0 3 0;
#X connect 10 0 3 1;
#X connect 11 0 3 0;
#X connect 11 0 3 1;
