#N canvas 447 117 1793 1478 12;
#X obj 1580 565 banger;
#X msg 1580 525 1;
#X obj 1585 500 loadbang;
#X obj 1660 620 % 16;
#X obj 125 150 trigpat;
#X obj 125 95 indicator;
#X obj 120 220 scalegen;
#X text 460 150 persian scale;
#X msg 460 180 1 4 5 6 9 11 12;
#X obj 595 105 loadbang;
#X obj 420 550 bassemu~;
#X obj 420 610 output~;
#X text 631 255 CutOff;
#X text 685 255 Reso;
#X text 724 255 EnvMod;
#X text 774 255 Decay;
#X obj 876 271 vsl 25 128 0 127 0 1 empty empty empty 0 -8 0 8 #fcfcfc
#000000 #000000 2300 1;
#X msg 870 440 glide \$1;
#X text 870 256 Glide;
#X obj 645 270 vsl 25 128 -1 1 0 1 empty empty empty 0 -8 0 8 #fcfcfc
#000000 #000000 625 1;
#X obj 691 270 vsl 25 128 -1 2 0 1 empty empty empty 0 -8 0 8 #fcfcfc
#000000 #000000 8000 1;
#X obj 737 270 vsl 25 128 -1 2 0 1 empty empty empty 0 -8 0 8 #fcfcfc
#000000 #000000 7497 1;
#X obj 783 270 vsl 25 128 -1 1 0 1 empty empty empty 0 -8 0 8 #fcfcfc
#000000 #000000 5300 1;
#X obj 829 270 vsl 25 128 0 1 0 1 empty empty empty 0 -8 0 8 #fcfcfc
#000000 #000000 4550 1;
#X msg 645 410 cutoff \$1;
#X msg 691 430 reso \$1;
#X obj 737 466 s bass_ctl;
#X msg 737 406 envmod \$1;
#X msg 783 426 decay \$1;
#X msg 829 406 pw \$1;
#X text 827 245 Rect;
#X text 824 255 Width;
#X obj 876 406 / 127;
#X obj 435 500 r bass_ctl;
#X obj 535 520 loadbang;
#X obj 145 635 s bass_ctl;
#X obj 1025 160 trigpat;
#X obj 1020 230 scalegen;
#X text 1360 160 persian scale;
#X msg 1360 190 1 4 5 6 9 11 12;
#X msg 1535 190 1;
#X msg 1485 190 4;
#X obj 1585 145 loadbang;
#X msg 1325 105 1 0 1 0 0 1 0 0 1 0 0 1 0 0 1 0;
#X msg 585 180 2;
#X obj 700 1010 output~;
#X obj 850 895 loadbang;
#X msg 1020 550 \$3 \$1 \$2;
#X obj 1020 525 pack 0 0 0;
#X obj 1195 520 nbx 5 14 0 127 0 1 empty empty instrument 0 -8 0 10
#fcfcfc #000000 #000000 1 256 0;
#X msg 850 945 1;
#X obj 130 770 trigpat;
#X obj 125 840 scalegen;
#X text 465 770 persian scale;
#X msg 465 800 1 4 5 6 9 11 12;
#X msg 640 800 1;
#X msg 590 800 4;
#X obj 125 1105 makenote 100 100, f 19;
#X obj 690 755 loadbang;
#X msg 125 1160 \$3 \$1 \$2;
#X obj 125 1135 pack 0 0 0;
#X obj 300 1130 nbx 5 14 0 127 0 1 empty empty instrument 0 -8 0 10
#fcfcfc #000000 #000000 10 256 0;
#X obj 670 880 r \$0-soundfont;
#X obj 1020 580 s \$0-soundfont;
#X obj 125 1195 s \$0-soundfont;
#X msg 460 730 1 0 1 0 1 1 0 1 1 1 0 1 1 0 1 1;
#X obj 125 740 r \$0-step;
#X obj 25 80 r \$0-step;
#X obj 1025 130 r \$0-step;
#X obj 1660 650 s \$0-step;
#X obj 1035 870 s \$0-soundfont;
#X text 990 795 CHH;
#X obj 1045 1045 s \$0-soundfont;
#X text 980 935 KICK;
#X obj 1045 1225 s \$0-soundfont;
#X text 975 1115 SNARE;
#X obj 170 530 pack 0 0;
#X obj 170 560 route 0;
#X msg 105 590 -1;
#X obj 120 485 makenote 100 2000, f 19;
#X msg 545 60 1 0 0 0 0 1 0 0 0 0 1 0 0 0 0 0;
#X msg 200 595 \$2;
#X msg 635 180 2;
#X obj 1020 495 makenote 100 1000, f 19;
#X obj 1035 755 r \$0-step;
#X obj 1035 785 trigpat;
#X obj 1040 925 r \$0-step;
#X obj 1040 955 trigpat;
#X obj 1040 1095 r \$0-step;
#X obj 1040 1125 trigpat;
#X msg 1405 780 1 0 1 0 1 0 1 0 1 0 1 0 1 0 1 0;
#X msg 1400 915 1 0 0 0 1 0 0 0 1 0 0 0 1 0 0 0;
#X msg 1405 1100 0 0 1 0 0 0 1 0 0 0 1 0 0 0 1 0;
#X obj 1700 865 loadbang;
#X msg 1621 527 60, f 5;
#X obj 125 40 cnv 15 403 38 empty empty BASS 20 12 0 16 #fffe00 #404040
0;
#X obj 1015 60 cnv 15 403 38 empty empty PIANO 19 12 0 16 #fffe00 #404040
0;
#X obj 120 695 cnv 15 403 38 empty empty RANDOM\ PERCUSSION 19 12 0
16 #fffe00 #404040 0;
#X obj 1030 705 cnv 15 403 38 empty empty STEP\ PERCUSSION 19 12 0
16 #fffe00 #404040 0;
#X obj 675 920 fluid~ TimGM6mb, f 16;
#X text 1170 1350 This is another stlye of sequencing \, using just
math;
#X obj 1040 1410 s \$0-soundfont;
#X obj 1040 1280 r \$0-step;
#X obj 1040 1355 select 1;
#X msg 1040 1385 10 51 100;
#X text 985 1335 CYM;
#X obj 1040 1305 % 8;
#X obj 1040 1330 == 7;
#X obj 1200 555 nbx 5 14 0 127 0 1 empty empty volume 0 -8 0 10 #fcfcfc
#000000 #000000 60 256 0;
#X obj 305 1170 nbx 5 14 0 127 0 1 empty empty volume 0 -8 0 10 #fcfcfc
#000000 #000000 70 256 0;
#X obj 1160 855 nbx 5 14 0 127 0 1 empty empty volume 0 -8 0 10 #fcfcfc
#000000 #000000 100 256 0;
#X obj 1150 1020 nbx 5 14 0 127 0 1 empty empty volume 0 -8 0 10 #fcfcfc
#000000 #000000 88 256 0;
#X obj 1130 1200 nbx 5 14 0 127 0 1 empty empty volume 0 -8 0 10 #fcfcfc
#000000 #000000 92 256 0;
#X msg 1045 1200 10 38 \$1;
#X msg 1045 1020 10 36 \$1;
#X msg 1035 845 10 42 \$1;
#X obj 670 560 oscope;
#X obj 670 1090 oscope;
#X obj 680 970 *~ 2;
#X obj 740 970 *~ 2;
#X msg 535 570 0.75;
#X connect 0 4 3 0;
#X connect 1 0 0 0;
#X connect 2 0 1 0;
#X connect 2 0 94 0;
#X connect 3 0 69 0;
#X connect 4 0 6 0;
#X connect 6 0 79 0;
#X connect 8 0 6 1;
#X connect 9 0 8 0;
#X connect 9 0 44 0;
#X connect 9 0 82 0;
#X connect 9 0 80 0;
#X connect 10 0 11 0;
#X connect 10 0 11 1;
#X connect 10 0 116 0;
#X connect 16 0 32 0;
#X connect 17 0 26 0;
#X connect 19 0 24 0;
#X connect 20 0 25 0;
#X connect 21 0 27 0;
#X connect 22 0 28 0;
#X connect 23 0 29 0;
#X connect 24 0 26 0;
#X connect 25 0 26 0;
#X connect 27 0 26 0;
#X connect 28 0 26 0;
#X connect 29 0 26 0;
#X connect 32 0 17 0;
#X connect 33 0 10 0;
#X connect 34 0 120 0;
#X connect 36 0 37 0;
#X connect 37 0 83 0;
#X connect 39 0 37 1;
#X connect 40 0 37 3;
#X connect 41 0 37 2;
#X connect 42 0 43 0;
#X connect 42 0 40 0;
#X connect 42 0 41 0;
#X connect 42 0 39 0;
#X connect 43 0 36 1;
#X connect 44 0 6 2;
#X connect 46 0 50 0;
#X connect 47 0 63 0;
#X connect 48 0 47 0;
#X connect 49 0 48 2;
#X connect 50 0 45 2;
#X connect 51 0 52 0;
#X connect 52 0 57 0;
#X connect 54 0 52 1;
#X connect 55 0 52 3;
#X connect 56 0 52 2;
#X connect 57 0 60 0;
#X connect 57 1 60 1;
#X connect 58 0 65 0;
#X connect 58 0 55 0;
#X connect 58 0 56 0;
#X connect 58 0 54 0;
#X connect 59 0 64 0;
#X connect 60 0 59 0;
#X connect 61 0 60 2;
#X connect 62 0 99 0;
#X connect 65 0 51 1;
#X connect 66 0 51 0;
#X connect 67 0 5 0;
#X connect 67 0 4 0;
#X connect 68 0 36 0;
#X connect 76 0 77 0;
#X connect 77 0 78 0;
#X connect 77 1 81 0;
#X connect 78 0 35 0;
#X connect 79 0 76 1;
#X connect 79 1 76 0;
#X connect 80 0 4 1;
#X connect 81 0 35 0;
#X connect 82 0 6 3;
#X connect 83 0 48 0;
#X connect 83 1 48 1;
#X connect 84 0 85 0;
#X connect 85 0 110 0;
#X connect 86 0 87 0;
#X connect 87 0 111 0;
#X connect 88 0 89 0;
#X connect 89 0 112 0;
#X connect 90 0 85 1;
#X connect 91 0 87 1;
#X connect 92 0 89 1;
#X connect 93 0 90 0;
#X connect 93 0 91 0;
#X connect 93 0 92 0;
#X connect 94 0 0 1;
#X connect 99 0 118 0;
#X connect 99 1 119 0;
#X connect 102 0 106 0;
#X connect 103 0 104 0;
#X connect 104 0 101 0;
#X connect 106 0 107 0;
#X connect 107 0 103 0;
#X connect 108 0 83 1;
#X connect 109 0 57 1;
#X connect 110 0 115 0;
#X connect 111 0 114 0;
#X connect 112 0 113 0;
#X connect 113 0 74 0;
#X connect 114 0 72 0;
#X connect 115 0 70 0;
#X connect 118 0 117 0;
#X connect 118 0 45 0;
#X connect 119 0 45 1;
#X connect 120 0 11 2;
