#N canvas 745 70 539 664 10;
#N canvas 0 50 450 300 (subpatch) 0;
#X array \$0-_ 100 float 2;
#X coords 0 1 100 0 200 200 2 0 0;
#X restore 13 26 graph;
#X obj 271 423 s \$0-_;
#X obj 271 402 pack f f;
#X obj 271 14 inlet~ ch_1;
#X obj 425 13 inlet~ ch_2;
#X obj 271 235 snapshot~;
#X obj 365 247 snapshot~;
#X obj 271 345 + 0;
#X obj 307 345 / 2;
#X obj 271 288 + 1;
#X obj 271 315 * 50;
#X obj 307 315 + 1;
#X obj 365 13 metro 1;
#X obj 271 372 int;
#X text 344 315 50=0;
#X obj 307 372 t b f;
#X obj 365 37 t b b;
#X obj 365 -27 loadbang;
#X connect 2 0 1 0;
#X connect 3 0 5 0;
#X connect 4 0 6 0;
#X connect 5 0 9 0;
#X connect 6 0 11 0;
#X connect 7 0 13 0;
#X connect 8 0 15 0;
#X connect 9 0 10 0;
#X connect 10 0 7 0;
#X connect 11 0 8 0;
#X connect 12 0 16 0;
#X connect 13 0 2 0;
#X connect 15 0 2 0;
#X connect 15 1 2 1;
#X connect 16 0 6 0;
#X connect 16 1 5 0;
#X connect 17 0 12 0;
#X coords 0 1 101 0 201 201 2 12 25;
