#N canvas 519 323 850 501 12;
#X obj 110 65 r axis;
#X obj 365 72 r button;
#X obj 129 246 tgl 20 0 bLEFT empty empty 17 7 0 10 #fcfcfc #000000
#000000 0 1;
#X obj 171 245 tgl 20 0 bRIGHT empty empty 17 7 0 10 #fcfcfc #000000
#000000 0 1;
#X obj 62 129 < 125;
#X obj 107 128 > 129;
#X obj 157 134 < 125;
#X obj 202 133 > 129;
#X obj 151 226 tgl 20 0 bUP empty empty 17 7 0 10 #fcfcfc #000000 #000000
0 1;
#X obj 150 266 tgl 20 0 bDOWN empty empty 17 7 0 10 #fcfcfc #000000
#000000 0 1;
#X obj 231 224 tgl 20 0 bX empty X 5 10 0 15 #fcfcfc #000000 #000000
0 1;
#X obj 211 245 tgl 20 0 bY empty Y 5 10 0 15 #fcfcfc #000000 #000000
0 1;
#X obj 251 244 tgl 20 0 bA empty A 5 10 0 15 #fcfcfc #000000 #000000
0 1;
#X obj 231 265 tgl 20 0 bB empty B 5 10 0 15 #fcfcfc #000000 #000000
0 1;
#X obj 116 192 tgl 20 0 bL empty L 5 10 0 15 #fcfcfc #000000 #000000
0 1;
#X obj 273 196 tgl 20 0 bR empty R 5 10 0 15 #fcfcfc #000000 #000000
0 1;
#X obj 364 114 route btn_0 btn_1 btn_2 btn_3 btn_4 btn_5 btn_8 btn_9
;
#X obj 168 299 tgl 20 0 bSELECT empty SELECT -5 10 0 10 #fcfcfc #000000
#000000 0 1;
#X obj 210 299 tgl 20 0 bSTART empty START -5 10 0 10 #fcfcfc #000000
#000000 0 1;
#X obj 449 374 hid;
#X msg 462 348 open 16;
#X obj 439 349 tgl 15 0 empty empty empty 17 7 0 10 #fcfcfc #000000
#000000 1 1;
#X obj 439 324 t b b;
#X obj 517 239 loadbang;
#X obj 440 301 bng 15 250 50 0 empty empty empty 17 7 0 10 #fcfcfc
#000000 #000000;
#X obj 449 400 route abs key;
#X obj 442 428 s axis;
#X obj 495 428 s button;
#X obj 572 372 hid;
#X obj 562 347 tgl 15 0 empty empty empty 17 7 0 10 #fcfcfc #000000
#000000 1 1;
#X obj 562 322 t b b;
#X obj 563 299 bng 15 250 50 0 empty empty empty 17 7 0 10 #fcfcfc
#000000 #000000;
#X obj 572 398 route abs key;
#X obj 565 426 s axis;
#X obj 618 426 s button;
#X msg 585 346 open 27;
#X text 399 461 normalize differnt device-ids for joystick;
#X obj 110 95 route abs_x abs_y;
#X text 140 20 PS4 mapping to a SNES-style control scheme;
#X connect 0 0 37 0;
#X connect 1 0 16 0;
#X connect 4 0 2 0;
#X connect 5 0 3 0;
#X connect 6 0 8 0;
#X connect 7 0 9 0;
#X connect 16 0 11 0;
#X connect 16 1 13 0;
#X connect 16 2 12 0;
#X connect 16 3 10 0;
#X connect 16 4 14 0;
#X connect 16 5 15 0;
#X connect 16 6 17 0;
#X connect 16 7 18 0;
#X connect 19 0 25 0;
#X connect 20 0 19 0;
#X connect 21 0 19 0;
#X connect 22 0 21 0;
#X connect 22 1 20 0;
#X connect 23 0 24 0;
#X connect 23 0 31 0;
#X connect 24 0 22 0;
#X connect 25 0 26 0;
#X connect 25 1 27 0;
#X connect 28 0 32 0;
#X connect 29 0 28 0;
#X connect 30 0 29 0;
#X connect 30 1 35 0;
#X connect 31 0 30 0;
#X connect 32 0 33 0;
#X connect 32 1 34 0;
#X connect 35 0 28 0;
#X connect 37 0 4 0;
#X connect 37 0 5 0;
#X connect 37 1 6 0;
#X connect 37 1 7 0;
#X coords 0 501 1 500 200 160 0;
